<svg width="207" height="24" viewBox="0 0 207 24" fill="none" xmlns="http://www.w3.org/2000/svg">
<mask id="path-1-outside-1_66_3" maskUnits="userSpaceOnUse" x="-1" y="-1" width="209" height="26" fill="black">
<rect fill="white" x="-1" y="-1" width="209" height="26"/>
<path d="M5.8 23H1.15C0.77 23 0.49 22.92 0.31 22.76C0.15 22.58 0.0700002 22.3 0.0700002 21.92V2.48C0.0700002 2.1 0.15 1.83 0.31 1.67C0.49 1.49 0.77 1.4 1.15 1.4H10.33C13.05 1.4 14.91 1.94 15.91 3.02C16.91 4.1 17.41 5.51 17.41 7.25V11.09C17.41 12.83 16.91 14.24 15.91 15.32C14.91 16.4 13.05 16.94 10.33 16.94H6.88V21.92C6.88 22.3 6.79 22.58 6.61 22.76C6.45 22.92 6.18 23 5.8 23ZM6.82 7.01V11.54H9.52C10.1 11.54 10.48 11.39 10.66 11.09C10.84 10.79 10.93 10.45 10.93 10.07V8.48C10.93 8.1 10.84 7.76 10.66 7.46C10.48 7.16 10.1 7.01 9.52 7.01H6.82ZM40.3192 17.33C40.3192 18.25 40.1792 19.09 39.8992 19.85C39.6392 20.59 39.1592 21.23 38.4592 21.77C37.7792 22.29 36.8292 22.7 35.6092 23C34.4092 23.3 32.8792 23.45 31.0192 23.45C29.1592 23.45 27.6192 23.3 26.3992 23C25.1792 22.7 24.2192 22.29 23.5192 21.77C22.8392 21.23 22.3592 20.59 22.0792 19.85C21.8192 19.09 21.6892 18.25 21.6892 17.33V7.1C21.6892 6.18 21.8192 5.35 22.0792 4.61C22.3592 3.85 22.8392 3.2 23.5192 2.66C24.2192 2.12 25.1792 1.7 26.3992 1.4C27.6192 1.1 29.1592 0.95 31.0192 0.95C32.8792 0.95 34.4092 1.1 35.6092 1.4C36.8292 1.7 37.7792 2.12 38.4592 2.66C39.1592 3.2 39.6392 3.85 39.8992 4.61C40.1792 5.35 40.3192 6.18 40.3192 7.1V17.33ZM28.4992 16.25C28.4992 16.65 28.6492 16.99 28.9492 17.27C29.2492 17.53 29.9392 17.66 31.0192 17.66C32.0992 17.66 32.7892 17.53 33.0892 17.27C33.3892 16.99 33.5392 16.65 33.5392 16.25V8.18C33.5392 7.8 33.3892 7.48 33.0892 7.22C32.7892 6.94 32.0992 6.8 31.0192 6.8C29.9392 6.8 29.2492 6.94 28.9492 7.22C28.6492 7.48 28.4992 7.8 28.4992 8.18V16.25ZM52.4184 6.8V10.64H54.6684C55.1884 10.64 55.5384 10.51 55.7184 10.25C55.8984 9.97 55.9884 9.63 55.9884 9.23V8.21C55.9884 7.81 55.8984 7.48 55.7184 7.22C55.5384 6.94 55.1884 6.8 54.6684 6.8H52.4184ZM51.3384 23H46.7184C46.3384 23 46.0584 22.92 45.8784 22.76C45.7184 22.58 45.6384 22.3 45.6384 21.92V2.48C45.6384 2.1 45.7184 1.83 45.8784 1.67C46.0584 1.49 46.3384 1.4 46.7184 1.4H56.7084C58.9484 1.4 60.4884 1.87 61.3284 2.81C62.1884 3.73 62.6184 4.93 62.6184 6.41V7.79C62.6184 8.63 62.4884 9.35 62.2284 9.95C61.9884 10.53 61.5584 10.95 60.9384 11.21C62.0184 11.33 62.8884 11.77 63.5484 12.53C64.2284 13.29 64.5684 14.3 64.5684 15.56V21.92C64.5684 22.3 64.4784 22.58 64.2984 22.76C64.1384 22.92 63.8684 23 63.4884 23H58.8384C58.4584 23 58.1784 22.92 57.9984 22.76C57.8384 22.58 57.7584 22.3 57.7584 21.92V17.33C57.7584 16.89 57.6684 16.57 57.4884 16.37C57.3284 16.15 57.0384 16.04 56.6184 16.04H52.4184V21.92C52.4184 22.3 52.3284 22.58 52.1484 22.76C51.9884 22.92 51.7184 23 51.3384 23ZM78.7251 23H73.8651C73.4851 23 73.2051 22.92 73.0251 22.76C72.8651 22.58 72.7851 22.3 72.7851 21.92V7.19H68.3751C67.9951 7.19 67.7151 7.11 67.5351 6.95C67.3751 6.77 67.2951 6.49 67.2951 6.11V2.48C67.2951 2.1 67.3751 1.83 67.5351 1.67C67.7151 1.49 67.9951 1.4 68.3751 1.4H84.2151C84.5951 1.4 84.8651 1.49 85.0251 1.67C85.2051 1.83 85.2951 2.1 85.2951 2.48V6.11C85.2951 6.49 85.2051 6.77 85.0251 6.95C84.8651 7.11 84.5951 7.19 84.2151 7.19H79.8051V21.92C79.8051 22.3 79.7151 22.58 79.5351 22.76C79.3751 22.92 79.1051 23 78.7251 23ZM95.4426 23H90.7926C90.4126 23 90.1326 22.92 89.9526 22.76C89.7926 22.58 89.7126 22.3 89.7126 21.92V2.48C89.7126 2.1 89.7926 1.83 89.9526 1.67C90.1326 1.49 90.4126 1.4 90.7926 1.4H104.173C104.553 1.4 104.823 1.49 104.983 1.67C105.163 1.83 105.253 2.1 105.253 2.48V6.05C105.253 6.43 105.163 6.71 104.983 6.89C104.823 7.05 104.553 7.13 104.173 7.13H96.5226V10.25H101.743C102.123 10.25 102.393 10.34 102.553 10.52C102.733 10.68 102.823 10.95 102.823 11.33V14.93C102.823 15.31 102.733 15.59 102.553 15.77C102.393 15.93 102.123 16.01 101.743 16.01H96.5226V21.92C96.5226 22.3 96.4326 22.58 96.2526 22.76C96.0926 22.92 95.8226 23 95.4426 23ZM127.911 17.33C127.911 18.25 127.771 19.09 127.491 19.85C127.231 20.59 126.751 21.23 126.051 21.77C125.371 22.29 124.421 22.7 123.201 23C122.001 23.3 120.471 23.45 118.611 23.45C116.751 23.45 115.211 23.3 113.991 23C112.771 22.7 111.811 22.29 111.111 21.77C110.431 21.23 109.951 20.59 109.671 19.85C109.411 19.09 109.281 18.25 109.281 17.33V7.1C109.281 6.18 109.411 5.35 109.671 4.61C109.951 3.85 110.431 3.2 111.111 2.66C111.811 2.12 112.771 1.7 113.991 1.4C115.211 1.1 116.751 0.95 118.611 0.95C120.471 0.95 122.001 1.1 123.201 1.4C124.421 1.7 125.371 2.12 126.051 2.66C126.751 3.2 127.231 3.85 127.491 4.61C127.771 5.35 127.911 6.18 127.911 7.1V17.33ZM116.091 16.25C116.091 16.65 116.241 16.99 116.541 17.27C116.841 17.53 117.531 17.66 118.611 17.66C119.691 17.66 120.381 17.53 120.681 17.27C120.981 16.99 121.131 16.65 121.131 16.25V8.18C121.131 7.8 120.981 7.48 120.681 7.22C120.381 6.94 119.691 6.8 118.611 6.8C117.531 6.8 116.841 6.94 116.541 7.22C116.241 7.48 116.091 7.8 116.091 8.18V16.25ZM149.58 23H134.31C133.93 23 133.65 22.92 133.47 22.76C133.31 22.58 133.23 22.3 133.23 21.92V2.48C133.23 2.1 133.31 1.83 133.47 1.67C133.65 1.49 133.93 1.4 134.31 1.4H138.96C139.34 1.4 139.61 1.49 139.77 1.67C139.95 1.83 140.04 2.1 140.04 2.48V17.33H144.15V12.47C144.15 12.09 144.23 11.82 144.39 11.66C144.57 11.48 144.85 11.39 145.23 11.39H149.58C149.96 11.39 150.23 11.48 150.39 11.66C150.57 11.82 150.66 12.09 150.66 12.47V21.92C150.66 22.3 150.57 22.58 150.39 22.76C150.23 22.92 149.96 23 149.58 23ZM156.19 23C155.81 23 155.53 22.92 155.35 22.76C155.19 22.58 155.11 22.3 155.11 21.92V18.35C155.11 17.97 155.19 17.7 155.35 17.54C155.53 17.36 155.81 17.27 156.19 17.27H159.16V7.19H156.19C155.81 7.19 155.53 7.11 155.35 6.95C155.19 6.77 155.11 6.49 155.11 6.11V2.48C155.11 2.1 155.19 1.83 155.35 1.67C155.53 1.49 155.81 1.4 156.19 1.4H168.97C169.35 1.4 169.62 1.49 169.78 1.67C169.96 1.83 170.05 2.1 170.05 2.48V6.11C170.05 6.49 169.96 6.77 169.78 6.95C169.62 7.11 169.35 7.19 168.97 7.19H166.06V17.27H168.97C169.35 17.27 169.62 17.36 169.78 17.54C169.96 17.7 170.05 17.97 170.05 18.35V21.92C170.05 22.3 169.96 22.58 169.78 22.76C169.62 22.92 169.35 23 168.97 23H156.19ZM193.554 17.33C193.554 18.25 193.414 19.09 193.134 19.85C192.874 20.59 192.394 21.23 191.694 21.77C191.014 22.29 190.064 22.7 188.844 23C187.644 23.3 186.114 23.45 184.254 23.45C182.394 23.45 180.854 23.3 179.634 23C178.414 22.7 177.454 22.29 176.754 21.77C176.074 21.23 175.594 20.59 175.314 19.85C175.054 19.09 174.924 18.25 174.924 17.33V7.1C174.924 6.18 175.054 5.35 175.314 4.61C175.594 3.85 176.074 3.2 176.754 2.66C177.454 2.12 178.414 1.7 179.634 1.4C180.854 1.1 182.394 0.95 184.254 0.95C186.114 0.95 187.644 1.1 188.844 1.4C190.064 1.7 191.014 2.12 191.694 2.66C192.394 3.2 192.874 3.85 193.134 4.61C193.414 5.35 193.554 6.18 193.554 7.1V17.33ZM181.734 16.25C181.734 16.65 181.884 16.99 182.184 17.27C182.484 17.53 183.174 17.66 184.254 17.66C185.334 17.66 186.024 17.53 186.324 17.27C186.624 16.99 186.774 16.65 186.774 16.25V8.18C186.774 7.8 186.624 7.48 186.324 7.22C186.024 6.94 185.334 6.8 184.254 6.8C183.174 6.8 182.484 6.94 182.184 7.22C181.884 7.48 181.734 7.8 181.734 8.18V16.25ZM205.593 23H199.533C199.153 23 198.873 22.92 198.693 22.76C198.533 22.58 198.453 22.3 198.453 21.92V15.83C198.453 15.45 198.533 15.18 198.693 15.02C198.873 14.84 199.153 14.75 199.533 14.75H205.593C205.973 14.75 206.243 14.84 206.403 15.02C206.583 15.18 206.673 15.45 206.673 15.83V21.92C206.673 22.3 206.583 22.58 206.403 22.76C206.243 22.92 205.973 23 205.593 23Z"/>
</mask>
<path d="M0.31 22.76L-0.437409 23.4244L-0.398329 23.4683L-0.354364 23.5074L0.31 22.76ZM0.31 1.67L-0.397107 0.962893L-0.397107 0.962893L0.31 1.67ZM15.91 3.02L15.1762 3.69941L15.1762 3.69941L15.91 3.02ZM15.91 15.32L15.1762 14.6406L15.1762 14.6406L15.91 15.32ZM6.88 16.94V15.94H5.88V16.94H6.88ZM6.61 22.76L5.90289 22.0529L5.90289 22.0529L6.61 22.76ZM6.82 7.01V6.01H5.82V7.01H6.82ZM6.82 11.54H5.82V12.54H6.82V11.54ZM10.66 11.09L11.5175 11.6045L11.5175 11.6045L10.66 11.09ZM10.66 7.46L9.80251 7.97449L9.80251 7.9745L10.66 7.46ZM5.8 22H1.15V24H5.8V22ZM1.15 22C1.02633 22 0.957984 21.9866 0.929721 21.9785C0.904301 21.9712 0.93118 21.9742 0.974364 22.0126L-0.354364 23.5074C0.0890941 23.9016 0.659771 24 1.15 24V22ZM1.05741 22.0956C1.0958 22.1388 1.09879 22.1657 1.09152 22.1403C1.08345 22.112 1.07 22.0437 1.07 21.92H-0.93C-0.93 22.4102 -0.831594 22.9809 -0.437409 23.4244L1.05741 22.0956ZM1.07 21.92V2.48H-0.93V21.92H1.07ZM1.07 2.48C1.07 2.41952 1.07321 2.37269 1.07751 2.33778C1.08182 2.30274 1.08677 2.28342 1.0888 2.27659C1.09285 2.2629 1.08037 2.31384 1.01711 2.37711L-0.397107 0.962893C-0.837759 1.40355 -0.93 2.00459 -0.93 2.48H1.07ZM1.01711 2.37711C0.978471 2.41574 0.948692 2.42349 0.961009 2.41953C0.978092 2.41404 1.03521 2.4 1.15 2.4V0.399999C0.634184 0.399999 0.0454936 0.520292 -0.397107 0.962893L1.01711 2.37711ZM1.15 2.4H10.33V0.399999H1.15V2.4ZM10.33 2.4C12.987 2.4 14.4741 2.94112 15.1762 3.69941L16.6438 2.34059C15.3459 0.938879 13.113 0.399999 10.33 0.399999V2.4ZM15.1762 3.69941C15.9746 4.56164 16.41 5.71314 16.41 7.25H18.41C18.41 5.30685 17.8454 3.63836 16.6438 2.34059L15.1762 3.69941ZM16.41 7.25V11.09H18.41V7.25H16.41ZM16.41 11.09C16.41 12.6269 15.9746 13.7784 15.1762 14.6406L16.6438 15.9994C17.8454 14.7016 18.41 13.0331 18.41 11.09H16.41ZM15.1762 14.6406C14.4741 15.3989 12.987 15.94 10.33 15.94V17.94C13.113 17.94 15.3459 17.4011 16.6438 15.9994L15.1762 14.6406ZM10.33 15.94H6.88V17.94H10.33V15.94ZM5.88 16.94V21.92H7.88V16.94H5.88ZM5.88 21.92C5.88 22.0348 5.86596 22.0919 5.86047 22.109C5.85651 22.1213 5.86426 22.0915 5.90289 22.0529L7.31711 23.4671C7.75971 23.0245 7.88 22.4358 7.88 21.92H5.88ZM5.90289 22.0529C5.96616 21.9896 6.0171 21.9771 6.00341 21.9812C5.99658 21.9832 5.97726 21.9882 5.94222 21.9925C5.90731 21.9968 5.86048 22 5.8 22V24C6.27541 24 6.87645 23.9078 7.31711 23.4671L5.90289 22.0529ZM5.82 7.01V11.54H7.82V7.01H5.82ZM6.82 12.54H9.52V10.54H6.82V12.54ZM9.52 12.54C10.2124 12.54 11.0608 12.3656 11.5175 11.6045L9.80251 10.5755C9.81991 10.5465 9.84153 10.5231 9.86111 10.5074C9.87937 10.4927 9.88696 10.4918 9.87283 10.4973C9.83777 10.5112 9.73295 10.54 9.52 10.54V12.54ZM11.5175 11.6045C11.7987 11.1358 11.93 10.6151 11.93 10.07H9.93C9.93 10.2849 9.88128 10.4442 9.80251 10.5755L11.5175 11.6045ZM11.93 10.07V8.48H9.93V10.07H11.93ZM11.93 8.48C11.93 7.93491 11.7987 7.41421 11.5175 6.9455L9.80251 7.9745C9.88128 8.10579 9.93 8.26509 9.93 8.48H11.93ZM11.5175 6.94551C11.0608 6.18442 10.2124 6.01 9.52 6.01V8.01C9.73295 8.01 9.83777 8.03881 9.87283 8.05265C9.88696 8.05823 9.87937 8.0573 9.86111 8.04263C9.84153 8.0269 9.81991 8.0035 9.80251 7.97449L11.5175 6.94551ZM9.52 6.01H6.82V8.01H9.52V6.01ZM39.8992 19.85L38.9609 19.5043L38.9583 19.5114L38.9558 19.5185L39.8992 19.85ZM38.4592 21.77L39.0667 22.5644L39.07 22.5618L38.4592 21.77ZM35.6092 23L35.3704 22.0289L35.3667 22.0299L35.6092 23ZM26.3992 23L26.1604 23.9711L26.1604 23.9711L26.3992 23ZM23.5192 21.77L22.8973 22.5531L22.91 22.5631L22.9229 22.5727L23.5192 21.77ZM22.0792 19.85L21.1331 20.1737L21.1383 20.1889L21.1439 20.2039L22.0792 19.85ZM22.0792 4.61L21.1409 4.26429L21.1383 4.27138L21.1358 4.27851L22.0792 4.61ZM23.5192 2.66L22.9084 1.86814L22.8973 1.87689L23.5192 2.66ZM26.3992 1.4L26.1604 0.428927L26.1604 0.428927L26.3992 1.4ZM35.6092 1.4L35.3667 2.37015L35.3704 2.37107L35.6092 1.4ZM38.4592 2.66L37.8373 3.44319L37.8484 3.45178L38.4592 2.66ZM39.8992 4.61L38.9531 4.93369L38.9583 4.94888L38.9639 4.96389L39.8992 4.61ZM28.9492 17.27L28.2669 18.0011L28.2804 18.0136L28.2943 18.0257L28.9492 17.27ZM33.0892 17.27L33.7441 18.0257L33.7581 18.0136L33.7715 18.0011L33.0892 17.27ZM33.0892 7.22L32.4069 7.95105L32.4204 7.96362L32.4343 7.97569L33.0892 7.22ZM28.9492 7.22L29.6042 7.97569L29.6181 7.96362L29.6315 7.95105L28.9492 7.22ZM39.3192 17.33C39.3192 18.1479 39.1949 18.869 38.9609 19.5043L40.8376 20.1957C41.1635 19.311 41.3192 18.3521 41.3192 17.33H39.3192ZM38.9558 19.5185C38.7677 20.0536 38.4154 20.5408 37.8484 20.9782L39.07 22.5618C39.903 21.9192 40.5107 21.1264 40.8427 20.1815L38.9558 19.5185ZM37.8518 20.9756C37.3199 21.3824 36.5139 21.7477 35.3704 22.0289L35.848 23.9711C37.1445 23.6523 38.2385 23.1976 39.0667 22.5644L37.8518 20.9756ZM35.3667 22.0299C34.275 22.3028 32.8341 22.45 31.0192 22.45V24.45C32.9244 24.45 34.5434 24.2972 35.8518 23.9701L35.3667 22.0299ZM31.0192 22.45C29.2051 22.45 27.7522 22.3029 26.638 22.0289L26.1604 23.9711C27.4862 24.2971 29.1133 24.45 31.0192 24.45V22.45ZM26.638 22.0289C25.4948 21.7478 24.6726 21.3811 24.1155 20.9673L22.9229 22.5727C23.7658 23.1989 24.8636 23.6522 26.1604 23.9711L26.638 22.0289ZM24.1411 20.9869C23.5882 20.5478 23.2245 20.0512 23.0145 19.4961L21.1439 20.2039C21.4939 21.1288 22.0903 21.9122 22.8973 22.5531L24.1411 20.9869ZM23.0254 19.5263C22.8058 18.8844 22.6892 18.1556 22.6892 17.33H20.6892C20.6892 18.3444 20.8326 19.2956 21.1331 20.1737L23.0254 19.5263ZM22.6892 17.33V7.1H20.6892V17.33H22.6892ZM22.6892 7.1C22.6892 6.2738 22.8059 5.55834 23.0227 4.94148L21.1358 4.27851C20.8325 5.14166 20.6892 6.0862 20.6892 7.1H22.6892ZM23.0176 4.9557C23.2296 4.38022 23.5939 3.87763 24.1411 3.44311L22.8973 1.87689C22.0845 2.52237 21.4889 3.31978 21.1409 4.26429L23.0176 4.9557ZM24.13 3.45178C24.6837 3.02465 25.5004 2.65081 26.638 2.37107L26.1604 0.428927C24.8581 0.749183 23.7547 1.21535 22.9084 1.86822L24.13 3.45178ZM26.638 2.37107C27.7522 2.09708 29.2051 1.95 31.0192 1.95V-0.0500004C29.1133 -0.0500004 27.4862 0.102917 26.1604 0.428927L26.638 2.37107ZM31.0192 1.95C32.8341 1.95 34.275 2.09723 35.3667 2.37014L35.8518 0.429857C34.5434 0.102771 32.9244 -0.0500004 31.0192 -0.0500004V1.95ZM35.3704 2.37107C36.5083 2.65088 37.3087 3.02333 37.8373 3.44311L39.0811 1.87689C38.2497 1.21667 37.1501 0.749116 35.848 0.428927L35.3704 2.37107ZM37.8484 3.45178C38.4094 3.88455 38.7629 4.37774 38.9531 4.93369L40.8454 4.28631C40.5156 3.32226 39.909 2.51545 39.07 1.86822L37.8484 3.45178ZM38.9639 4.96389C39.1948 5.57402 39.3192 6.28155 39.3192 7.1H41.3192C41.3192 6.07845 41.1636 5.12598 40.8345 4.25611L38.9639 4.96389ZM39.3192 7.1V17.33H41.3192V7.1H39.3192ZM27.4992 16.25C27.4992 16.9352 27.7702 17.5375 28.2669 18.0011L29.6315 16.5389C29.5282 16.4425 29.4992 16.3648 29.4992 16.25H27.4992ZM28.2943 18.0257C28.6453 18.3299 29.1033 18.4692 29.5066 18.5452C29.9359 18.6261 30.4464 18.66 31.0192 18.66V16.66C30.512 16.66 30.1375 16.6289 29.8769 16.5798C29.5902 16.5258 29.5531 16.4701 29.6041 16.5143L28.2943 18.0257ZM31.0192 18.66C31.592 18.66 32.1025 18.6261 32.5319 18.5452C32.9352 18.4692 33.3931 18.3299 33.7441 18.0257L32.4343 16.5143C32.4853 16.4701 32.4483 16.5258 32.1616 16.5798C31.9009 16.6289 31.5264 16.66 31.0192 16.66V18.66ZM33.7715 18.0011C34.2682 17.5375 34.5392 16.9352 34.5392 16.25H32.5392C32.5392 16.3648 32.5102 16.4425 32.4069 16.5389L33.7715 18.0011ZM34.5392 16.25V8.18H32.5392V16.25H34.5392ZM34.5392 8.18C34.5392 7.49551 34.2521 6.90456 33.7442 6.46431L32.4343 7.97569C32.5263 8.05544 32.5392 8.10449 32.5392 8.18H34.5392ZM33.7715 6.48894C33.4212 6.16192 32.9575 6.00856 32.5456 5.92497C32.1103 5.83665 31.5947 5.8 31.0192 5.8V7.8C31.5238 7.8 31.8932 7.83335 32.1479 7.88503C32.4259 7.94144 32.4573 7.99808 32.4069 7.95105L33.7715 6.48894ZM31.0192 5.8C30.4438 5.8 29.9282 5.83665 29.4929 5.92497C29.0809 6.00856 28.6173 6.16192 28.2669 6.48894L29.6315 7.95105C29.5812 7.99808 29.6125 7.94144 29.8906 7.88503C30.1453 7.83335 30.5147 7.8 31.0192 7.8V5.8ZM28.2943 6.46431C27.7863 6.90456 27.4992 7.49551 27.4992 8.18H29.4992C29.4992 8.10449 29.5121 8.05544 29.6042 7.97569L28.2943 6.46431ZM27.4992 8.18V16.25H29.4992V8.18H27.4992ZM52.4184 6.8V5.8H51.4184V6.8H52.4184ZM52.4184 10.64H51.4184V11.64H52.4184V10.64ZM55.7184 10.25L56.5406 10.8192L56.5503 10.8051L56.5595 10.7908L55.7184 10.25ZM55.7184 7.22L54.8772 7.76076L54.8864 7.77515L54.8962 7.78921L55.7184 7.22ZM45.8784 22.76L45.131 23.4244L45.17 23.4683L45.214 23.5074L45.8784 22.76ZM45.8784 1.67L45.1713 0.962893L45.1713 0.962893L45.8784 1.67ZM61.3284 2.81L60.5827 3.47633L60.5902 3.48469L60.5978 3.49288L61.3284 2.81ZM62.2284 9.95L61.3108 9.55239L61.3075 9.55999L61.3043 9.56765L62.2284 9.95ZM60.9384 11.21L60.5516 10.2878L56.9974 11.7783L60.8279 12.2039L60.9384 11.21ZM63.5484 12.53L62.7933 13.1857L62.7982 13.1913L62.8031 13.1968L63.5484 12.53ZM64.2984 22.76L65.0055 23.4671L65.0055 23.4671L64.2984 22.76ZM57.9984 22.76L57.251 23.4244L57.29 23.4683L57.334 23.5074L57.9984 22.76ZM57.4884 16.37L56.6796 16.9582L56.7102 17.0003L56.7451 17.039L57.4884 16.37ZM52.4184 16.04V15.04H51.4184V16.04H52.4184ZM52.1484 22.76L51.4413 22.0529L51.4413 22.0529L52.1484 22.76ZM51.4184 6.8V10.64H53.4184V6.8H51.4184ZM52.4184 11.64H54.6684V9.64H52.4184V11.64ZM54.6684 11.64C55.3027 11.64 56.0784 11.4867 56.5406 10.8192L54.8962 9.68079C54.9166 9.65126 54.9397 9.62928 54.9588 9.61519C54.9768 9.60193 54.9845 9.60069 54.9727 9.60507C54.9435 9.61592 54.8527 9.64 54.6684 9.64V11.64ZM56.5595 10.7908C56.8625 10.3195 56.9884 9.78267 56.9884 9.23H54.9884C54.9884 9.47733 54.9342 9.62054 54.8772 9.70924L56.5595 10.7908ZM56.9884 9.23V8.21H54.9884V9.23H56.9884ZM56.9884 8.21C56.9884 7.66058 56.8637 7.11751 56.5406 6.65079L54.8962 7.78921C54.9331 7.84249 54.9884 7.95942 54.9884 8.21H56.9884ZM56.5595 6.67924C56.1085 5.97765 55.3282 5.8 54.6684 5.8V7.8C54.8461 7.8 54.9282 7.82497 54.9495 7.83348C54.9574 7.83663 54.9481 7.83401 54.9304 7.82C54.9118 7.80526 54.8926 7.78478 54.8772 7.76076L56.5595 6.67924ZM54.6684 5.8H52.4184V7.8H54.6684V5.8ZM51.3384 22H46.7184V24H51.3384V22ZM46.7184 22C46.5947 22 46.5263 21.9866 46.4981 21.9785C46.4727 21.9712 46.4995 21.9742 46.5427 22.0126L45.214 23.5074C45.6575 23.9016 46.2281 24 46.7184 24V22ZM46.6258 22.0956C46.6642 22.1388 46.6671 22.1657 46.6599 22.1403C46.6518 22.112 46.6384 22.0437 46.6384 21.92H44.6384C44.6384 22.4102 44.7368 22.9809 45.131 23.4244L46.6258 22.0956ZM46.6384 21.92V2.48H44.6384V21.92H46.6384ZM46.6384 2.48C46.6384 2.41952 46.6416 2.37269 46.6459 2.33778C46.6502 2.30274 46.6551 2.28342 46.6572 2.27659C46.6612 2.2629 46.6487 2.31384 46.5855 2.37711L45.1713 0.962893C44.7306 1.40355 44.6384 2.00459 44.6384 2.48H46.6384ZM46.5855 2.37711C46.5468 2.41574 46.5171 2.42349 46.5294 2.41953C46.5465 2.41404 46.6036 2.4 46.7184 2.4V0.399999C46.2025 0.399999 45.6139 0.520292 45.1713 0.962893L46.5855 2.37711ZM46.7184 2.4H56.7084V0.399999H46.7184V2.4ZM56.7084 2.4C58.8704 2.4 60.0365 2.86508 60.5827 3.47633L62.074 2.14367C60.9402 0.874915 59.0263 0.399999 56.7084 0.399999V2.4ZM60.5978 3.49288C61.2548 4.19573 61.6184 5.13619 61.6184 6.41H63.6184C63.6184 4.72381 63.1219 3.26427 62.0589 2.12711L60.5978 3.49288ZM61.6184 6.41V7.79H63.6184V6.41H61.6184ZM61.6184 7.79C61.6184 8.53057 61.5033 9.10815 61.3108 9.55239L63.1459 10.3476C63.4734 9.59185 63.6184 8.72943 63.6184 7.79H61.6184ZM61.3043 9.56765C61.1729 9.88536 60.9475 10.1218 60.5516 10.2878L61.3251 12.1322C62.1693 11.7782 62.8038 11.1746 63.1524 10.3324L61.3043 9.56765ZM60.8279 12.2039C61.6799 12.2985 62.3118 12.6312 62.7933 13.1857L64.3034 11.8743C63.4649 10.9088 62.3568 10.3615 61.0488 10.2161L60.8279 12.2039ZM62.8031 13.1968C63.2828 13.7329 63.5684 14.4856 63.5684 15.56H65.5684C65.5684 14.1144 65.1739 12.8471 64.2936 11.8632L62.8031 13.1968ZM63.5684 15.56V21.92H65.5684V15.56H63.5684ZM63.5684 21.92C63.5684 22.0348 63.5543 22.0919 63.5488 22.109C63.5449 22.1213 63.5526 22.0915 63.5913 22.0529L65.0055 23.4671C65.4481 23.0245 65.5684 22.4358 65.5684 21.92H63.5684ZM63.5913 22.0529C63.6545 21.9896 63.7055 21.9771 63.6918 21.9812C63.6849 21.9832 63.6656 21.9882 63.6306 21.9925C63.5957 21.9968 63.5488 22 63.4884 22V24C63.9638 24 64.5648 23.9078 65.0055 23.4671L63.5913 22.0529ZM63.4884 22H58.8384V24H63.4884V22ZM58.8384 22C58.7147 22 58.6463 21.9866 58.6181 21.9785C58.5927 21.9712 58.6195 21.9742 58.6627 22.0126L57.334 23.5074C57.7775 23.9016 58.3481 24 58.8384 24V22ZM58.7458 22.0956C58.7842 22.1388 58.7871 22.1657 58.7799 22.1403C58.7718 22.112 58.7584 22.0437 58.7584 21.92H56.7584C56.7584 22.4102 56.8568 22.9809 57.251 23.4244L58.7458 22.0956ZM58.7584 21.92V17.33H56.7584V21.92H58.7584ZM58.7584 17.33C58.7584 16.7903 58.6543 16.1707 58.2317 15.701L56.7451 17.039C56.711 17.0011 56.7152 16.9845 56.7282 17.0307C56.7419 17.0795 56.7584 17.1739 56.7584 17.33H58.7584ZM58.2971 15.7818C57.8638 15.1861 57.1791 15.04 56.6184 15.04V17.04C56.6804 17.04 56.7254 17.0441 56.7559 17.0488C56.7863 17.0536 56.7981 17.0582 56.7962 17.0575C56.7936 17.0565 56.7767 17.0497 56.7526 17.032C56.7277 17.0138 56.7019 16.9888 56.6796 16.9582L58.2971 15.7818ZM56.6184 15.04H52.4184V17.04H56.6184V15.04ZM51.4184 16.04V21.92H53.4184V16.04H51.4184ZM51.4184 21.92C51.4184 22.0348 51.4043 22.0919 51.3988 22.109C51.3949 22.1213 51.4026 22.0915 51.4413 22.0529L52.8555 23.4671C53.2981 23.0245 53.4184 22.4358 53.4184 21.92H51.4184ZM51.4413 22.0529C51.5045 21.9896 51.5555 21.9771 51.5418 21.9812C51.5349 21.9832 51.5156 21.9882 51.4806 21.9925C51.4457 21.9968 51.3988 22 51.3384 22V24C51.8138 24 52.4148 23.9078 52.8555 23.4671L51.4413 22.0529ZM73.0251 22.76L72.2777 23.4244L72.3167 23.4683L72.3607 23.5074L73.0251 22.76ZM72.7851 7.19H73.7851V6.19H72.7851V7.19ZM67.5351 6.95L66.7877 7.61436L66.8267 7.65833L66.8707 7.69741L67.5351 6.95ZM67.5351 1.67L66.828 0.962893L66.828 0.962893L67.5351 1.67ZM85.0251 1.67L84.2777 2.33436L84.3167 2.37833L84.3607 2.41741L85.0251 1.67ZM85.0251 6.95L85.7322 7.65711L85.0251 6.95ZM79.8051 7.19V6.19H78.8051V7.19H79.8051ZM79.5351 22.76L78.828 22.0529L78.828 22.0529L79.5351 22.76ZM78.7251 22H73.8651V24H78.7251V22ZM73.8651 22C73.7414 22 73.6731 21.9866 73.6448 21.9785C73.6194 21.9712 73.6463 21.9742 73.6894 22.0126L72.3607 23.5074C72.8042 23.9016 73.3748 24 73.8651 24V22ZM73.7725 22.0956C73.8109 22.1388 73.8139 22.1657 73.8066 22.1403C73.7985 22.112 73.7851 22.0437 73.7851 21.92H71.7851C71.7851 22.4102 71.8835 22.9809 72.2777 23.4244L73.7725 22.0956ZM73.7851 21.92V7.19H71.7851V21.92H73.7851ZM72.7851 6.19H68.3751V8.19H72.7851V6.19ZM68.3751 6.19C68.2514 6.19 68.1831 6.17655 68.1548 6.16848C68.1294 6.16121 68.1563 6.1642 68.1994 6.20259L66.8707 7.69741C67.3142 8.09159 67.8848 8.19 68.3751 8.19V6.19ZM68.2825 6.28564C68.3209 6.32882 68.3239 6.3557 68.3166 6.33028C68.3085 6.30201 68.2951 6.23367 68.2951 6.11H66.2951C66.2951 6.60023 66.3935 7.17091 66.7877 7.61436L68.2825 6.28564ZM68.2951 6.11V2.48H66.2951V6.11H68.2951ZM68.2951 2.48C68.2951 2.41952 68.2983 2.37269 68.3026 2.33778C68.3069 2.30274 68.3119 2.28342 68.3139 2.27659C68.3179 2.2629 68.3055 2.31384 68.2422 2.37711L66.828 0.962893C66.3873 1.40355 66.2951 2.00459 66.2951 2.48H68.2951ZM68.2422 2.37711C68.2035 2.41574 68.1738 2.42349 68.1861 2.41953C68.2032 2.41404 68.2603 2.4 68.3751 2.4V0.399999C67.8593 0.399999 67.2706 0.520292 66.828 0.962893L68.2422 2.37711ZM68.3751 2.4H84.2151V0.399999H68.3751V2.4ZM84.2151 2.4C84.2712 2.4 84.3129 2.40336 84.3423 2.40742C84.3717 2.4115 84.3852 2.41579 84.3864 2.41618C84.3872 2.41646 84.374 2.41217 84.3527 2.39876C84.3306 2.38491 84.3039 2.36384 84.2777 2.33436L85.7725 1.00563C85.3363 0.514965 84.718 0.399999 84.2151 0.399999V2.4ZM84.3607 2.41741C84.3312 2.39121 84.3102 2.36445 84.2963 2.34239C84.2829 2.32104 84.2786 2.3079 84.2789 2.30873C84.2793 2.30992 84.2836 2.32338 84.2877 2.35278C84.2917 2.38214 84.2951 2.42388 84.2951 2.48H86.2951C86.2951 1.97712 86.1801 1.35874 85.6894 0.92259L84.3607 2.41741ZM84.2951 2.48V6.11H86.2951V2.48H84.2951ZM84.2951 6.11C84.2951 6.22479 84.281 6.28191 84.2756 6.29899C84.2716 6.31131 84.2793 6.28153 84.318 6.24289L85.7322 7.65711C86.1748 7.21451 86.2951 6.62582 86.2951 6.11H84.2951ZM84.318 6.24289C84.3812 6.17963 84.4322 6.16715 84.4185 6.1712C84.4117 6.17323 84.3923 6.17818 84.3573 6.18249C84.3224 6.18679 84.2756 6.19 84.2151 6.19V8.19C84.6905 8.19 85.2915 8.09776 85.7322 7.65711L84.318 6.24289ZM84.2151 6.19H79.8051V8.19H84.2151V6.19ZM78.8051 7.19V21.92H80.8051V7.19H78.8051ZM78.8051 21.92C78.8051 22.0348 78.791 22.0919 78.7856 22.109C78.7816 22.1213 78.7893 22.0915 78.828 22.0529L80.2422 23.4671C80.6848 23.0245 80.8051 22.4358 80.8051 21.92H78.8051ZM78.828 22.0529C78.8912 21.9896 78.9422 21.9771 78.9285 21.9812C78.9217 21.9832 78.9023 21.9882 78.8673 21.9925C78.8324 21.9968 78.7856 22 78.7251 22V24C79.2005 24 79.8015 23.9078 80.2422 23.4671L78.828 22.0529ZM89.9526 22.76L89.2052 23.4244L89.2442 23.4683L89.2882 23.5074L89.9526 22.76ZM89.9526 1.67L89.2455 0.962893L89.2455 0.962893L89.9526 1.67ZM104.983 1.67L104.235 2.33436L104.274 2.37833L104.318 2.41741L104.983 1.67ZM96.5226 7.13V6.13H95.5226V7.13H96.5226ZM96.5226 10.25H95.5226V11.25H96.5226V10.25ZM102.553 10.52L101.805 11.1844L101.844 11.2283L101.888 11.2674L102.553 10.52ZM102.553 15.77L101.845 15.0629L101.845 15.0629L102.553 15.77ZM96.5226 16.01V15.01H95.5226V16.01H96.5226ZM96.2526 22.76L95.5455 22.0529L95.5455 22.0529L96.2526 22.76ZM95.4426 22H90.7926V24H95.4426V22ZM90.7926 22C90.6689 22 90.6006 21.9866 90.5723 21.9785C90.5469 21.9712 90.5738 21.9742 90.6169 22.0126L89.2882 23.5074C89.7317 23.9016 90.3023 24 90.7926 24V22ZM90.7 22.0956C90.7384 22.1388 90.7414 22.1657 90.7341 22.1403C90.726 22.112 90.7126 22.0437 90.7126 21.92H88.7126C88.7126 22.4102 88.811 22.9809 89.2052 23.4244L90.7 22.0956ZM90.7126 21.92V2.48H88.7126V21.92H90.7126ZM90.7126 2.48C90.7126 2.41952 90.7158 2.37269 90.7201 2.33778C90.7244 2.30274 90.7294 2.28342 90.7314 2.27659C90.7354 2.2629 90.723 2.31384 90.6597 2.37711L89.2455 0.962893C88.8048 1.40355 88.7126 2.00459 88.7126 2.48H90.7126ZM90.6597 2.37711C90.621 2.41574 90.5913 2.42349 90.6036 2.41953C90.6207 2.41404 90.6778 2.4 90.7926 2.4V0.399999C90.2768 0.399999 89.6881 0.520292 89.2455 0.962893L90.6597 2.37711ZM90.7926 2.4H104.173V0.399999H90.7926V2.4ZM104.173 2.4C104.229 2.4 104.27 2.40336 104.3 2.40742C104.329 2.4115 104.343 2.41579 104.344 2.41618C104.345 2.41646 104.332 2.41217 104.31 2.39876C104.288 2.38491 104.261 2.36384 104.235 2.33436L105.73 1.00564C105.294 0.514964 104.675 0.399999 104.173 0.399999V2.4ZM104.318 2.41741C104.289 2.39121 104.268 2.36445 104.254 2.34239C104.24 2.32104 104.236 2.3079 104.236 2.30873C104.237 2.30992 104.241 2.32338 104.245 2.35278C104.249 2.38214 104.253 2.42388 104.253 2.48H106.253C106.253 1.97712 106.138 1.35874 105.647 0.92259L104.318 2.41741ZM104.253 2.48V6.05H106.253V2.48H104.253ZM104.253 6.05C104.253 6.16479 104.239 6.22191 104.233 6.23899C104.229 6.25131 104.237 6.22153 104.275 6.18289L105.69 7.59711C106.132 7.15451 106.253 6.56582 106.253 6.05H104.253ZM104.275 6.18289C104.339 6.11963 104.39 6.10715 104.376 6.1112C104.369 6.11323 104.35 6.11817 104.315 6.12249C104.28 6.12678 104.233 6.13 104.173 6.13V8.13C104.648 8.13 105.249 8.03776 105.69 7.59711L104.275 6.18289ZM104.173 6.13H96.5226V8.13H104.173V6.13ZM95.5226 7.13V10.25H97.5226V7.13H95.5226ZM96.5226 11.25H101.743V9.25H96.5226V11.25ZM101.743 11.25C101.799 11.25 101.84 11.2534 101.87 11.2574C101.899 11.2615 101.913 11.2658 101.914 11.2662C101.915 11.2665 101.902 11.2622 101.88 11.2488C101.858 11.2349 101.831 11.2138 101.805 11.1844L103.3 9.85564C102.864 9.36497 102.245 9.25 101.743 9.25V11.25ZM101.888 11.2674C101.859 11.2412 101.838 11.2145 101.824 11.1924C101.81 11.171 101.806 11.1579 101.806 11.1587C101.807 11.1599 101.811 11.1734 101.815 11.2028C101.819 11.2321 101.823 11.2739 101.823 11.33H103.823C103.823 10.8271 103.708 10.2087 103.217 9.77259L101.888 11.2674ZM101.823 11.33V14.93H103.823V11.33H101.823ZM101.823 14.93C101.823 15.0448 101.809 15.1019 101.803 15.119C101.799 15.1313 101.807 15.1015 101.845 15.0629L103.26 16.4771C103.702 16.0345 103.823 15.4458 103.823 14.93H101.823ZM101.845 15.0629C101.909 14.9996 101.96 14.9871 101.946 14.9912C101.939 14.9932 101.92 14.9982 101.885 15.0025C101.85 15.0068 101.803 15.01 101.743 15.01V17.01C102.218 17.01 102.819 16.9178 103.26 16.4771L101.845 15.0629ZM101.743 15.01H96.5226V17.01H101.743V15.01ZM95.5226 16.01V21.92H97.5226V16.01H95.5226ZM95.5226 21.92C95.5226 22.0348 95.5085 22.0919 95.503 22.109C95.4991 22.1213 95.5068 22.0915 95.5455 22.0529L96.9597 23.4671C97.4023 23.0245 97.5226 22.4358 97.5226 21.92H95.5226ZM95.5455 22.0529C95.6087 21.9896 95.6597 21.9771 95.646 21.9812C95.6392 21.9832 95.6198 21.9882 95.5848 21.9925C95.5499 21.9968 95.5031 22 95.4426 22V24C95.918 24 96.519 23.9078 96.9597 23.4671L95.5455 22.0529ZM127.491 19.85L126.553 19.5043L126.55 19.5114L126.548 19.5185L127.491 19.85ZM126.051 21.77L126.658 22.5644L126.662 22.5618L126.051 21.77ZM123.201 23L122.962 22.0289L122.958 22.0299L123.201 23ZM113.991 23L113.752 23.9711L113.752 23.9711L113.991 23ZM111.111 21.77L110.489 22.5531L110.502 22.5631L110.515 22.5727L111.111 21.77ZM109.671 19.85L108.725 20.1737L108.73 20.1889L108.736 20.2039L109.671 19.85ZM109.671 4.61L108.733 4.26429L108.73 4.27138L108.728 4.27851L109.671 4.61ZM111.111 2.66L110.5 1.86814L110.489 1.87689L111.111 2.66ZM113.991 1.4L113.752 0.428927L113.752 0.428927L113.991 1.4ZM123.201 1.4L122.958 2.37015L122.962 2.37107L123.201 1.4ZM126.051 2.66L125.429 3.44319L125.44 3.45178L126.051 2.66ZM127.491 4.61L126.545 4.93369L126.55 4.94888L126.556 4.96389L127.491 4.61ZM116.541 17.27L115.859 18.0011L115.872 18.0136L115.886 18.0257L116.541 17.27ZM120.681 17.27L121.336 18.0257L121.35 18.0136L121.363 18.0011L120.681 17.27ZM120.681 7.22L119.999 7.95105L120.012 7.96362L120.026 7.97569L120.681 7.22ZM116.541 7.22L117.196 7.97569L117.21 7.96362L117.223 7.95105L116.541 7.22ZM126.911 17.33C126.911 18.1479 126.787 18.869 126.553 19.5043L128.429 20.1957C128.755 19.311 128.911 18.3521 128.911 17.33H126.911ZM126.548 19.5185C126.36 20.0536 126.007 20.5408 125.44 20.9782L126.662 22.5618C127.495 21.9192 128.102 21.1264 128.434 20.1815L126.548 19.5185ZM125.444 20.9756C124.912 21.3824 124.106 21.7477 122.962 22.0289L123.44 23.9711C124.736 23.6523 125.83 23.1976 126.658 22.5644L125.444 20.9756ZM122.958 22.0299C121.867 22.3028 120.426 22.45 118.611 22.45V24.45C120.516 24.45 122.135 24.2972 123.444 23.9701L122.958 22.0299ZM118.611 22.45C116.797 22.45 115.344 22.3029 114.23 22.0289L113.752 23.9711C115.078 24.2971 116.705 24.45 118.611 24.45V22.45ZM114.23 22.0289C113.087 21.7478 112.264 21.3811 111.707 20.9673L110.515 22.5727C111.358 23.1989 112.455 23.6522 113.752 23.9711L114.23 22.0289ZM111.733 20.9869C111.18 20.5478 110.816 20.0512 110.606 19.4961L108.736 20.2039C109.086 21.1288 109.682 21.9122 110.489 22.5531L111.733 20.9869ZM110.617 19.5263C110.398 18.8844 110.281 18.1556 110.281 17.33H108.281C108.281 18.3444 108.424 19.2956 108.725 20.1737L110.617 19.5263ZM110.281 17.33V7.1H108.281V17.33H110.281ZM110.281 7.1C110.281 6.2738 110.398 5.55834 110.614 4.94148L108.728 4.27851C108.424 5.14166 108.281 6.0862 108.281 7.1H110.281ZM110.609 4.9557C110.821 4.38022 111.186 3.87763 111.733 3.44311L110.489 1.87689C109.676 2.52237 109.081 3.31978 108.733 4.26429L110.609 4.9557ZM111.722 3.45178C112.276 3.02465 113.092 2.65081 114.23 2.37107L113.752 0.428927C112.45 0.749183 111.347 1.21535 110.5 1.86822L111.722 3.45178ZM114.23 2.37107C115.344 2.09708 116.797 1.95 118.611 1.95V-0.0500004C116.705 -0.0500004 115.078 0.102917 113.752 0.428927L114.23 2.37107ZM118.611 1.95C120.426 1.95 121.867 2.09723 122.958 2.37014L123.444 0.429857C122.135 0.102771 120.516 -0.0500004 118.611 -0.0500004V1.95ZM122.962 2.37107C124.1 2.65088 124.901 3.02333 125.429 3.44311L126.673 1.87689C125.842 1.21667 124.742 0.749116 123.44 0.428927L122.962 2.37107ZM125.44 3.45178C126.001 3.88455 126.355 4.37774 126.545 4.93369L128.437 4.28631C128.107 3.32226 127.501 2.51545 126.662 1.86822L125.44 3.45178ZM126.556 4.96389C126.787 5.57402 126.911 6.28155 126.911 7.1H128.911C128.911 6.07845 128.755 5.12598 128.426 4.25611L126.556 4.96389ZM126.911 7.1V17.33H128.911V7.1H126.911ZM115.091 16.25C115.091 16.9352 115.362 17.5375 115.859 18.0011L117.223 16.5389C117.12 16.4425 117.091 16.3648 117.091 16.25H115.091ZM115.886 18.0257C116.237 18.3299 116.695 18.4692 117.098 18.5452C117.528 18.6261 118.038 18.66 118.611 18.66V16.66C118.104 16.66 117.729 16.6289 117.469 16.5798C117.182 16.5258 117.145 16.4701 117.196 16.5143L115.886 18.0257ZM118.611 18.66C119.184 18.66 119.694 18.6261 120.124 18.5452C120.527 18.4692 120.985 18.3299 121.336 18.0257L120.026 16.5143C120.077 16.4701 120.04 16.5258 119.753 16.5798C119.493 16.6289 119.118 16.66 118.611 16.66V18.66ZM121.363 18.0011C121.86 17.5375 122.131 16.9352 122.131 16.25H120.131C120.131 16.3648 120.102 16.4425 119.999 16.5389L121.363 18.0011ZM122.131 16.25V8.18H120.131V16.25H122.131ZM122.131 8.18C122.131 7.49551 121.844 6.90456 121.336 6.46431L120.026 7.97569C120.118 8.05544 120.131 8.10449 120.131 8.18H122.131ZM121.363 6.48894C121.013 6.16192 120.549 6.00856 120.137 5.92497C119.702 5.83665 119.186 5.8 118.611 5.8V7.8C119.116 7.8 119.485 7.83335 119.74 7.88503C120.018 7.94144 120.049 7.99808 119.999 7.95105L121.363 6.48894ZM118.611 5.8C118.036 5.8 117.52 5.83665 117.085 5.92497C116.673 6.00856 116.209 6.16192 115.859 6.48894L117.223 7.95105C117.173 7.99808 117.204 7.94144 117.482 7.88503C117.737 7.83335 118.106 7.8 118.611 7.8V5.8ZM115.886 6.46431C115.378 6.90456 115.091 7.49551 115.091 8.18H117.091C117.091 8.10449 117.104 8.05544 117.196 7.97569L115.886 6.46431ZM115.091 8.18V16.25H117.091V8.18H115.091ZM133.47 22.76L132.723 23.4244L132.762 23.4683L132.806 23.5074L133.47 22.76ZM133.47 1.67L132.763 0.962893L132.763 0.962893L133.47 1.67ZM139.77 1.67L139.023 2.33436L139.062 2.37833L139.106 2.41741L139.77 1.67ZM140.04 17.33H139.04V18.33H140.04V17.33ZM144.15 17.33V18.33H145.15V17.33H144.15ZM144.39 11.66L143.683 10.9529L143.683 10.9529L144.39 11.66ZM150.39 11.66L149.643 12.3244L149.682 12.3683L149.726 12.4074L150.39 11.66ZM150.39 22.76L151.097 23.4671L151.097 23.4671L150.39 22.76ZM149.58 22H134.31V24H149.58V22ZM134.31 22C134.186 22 134.118 21.9866 134.09 21.9785C134.064 21.9712 134.091 21.9742 134.135 22.0126L132.806 23.5074C133.249 23.9016 133.82 24 134.31 24V22ZM134.218 22.0956C134.256 22.1388 134.259 22.1657 134.252 22.1403C134.244 22.112 134.23 22.0437 134.23 21.92H132.23C132.23 22.4102 132.329 22.9809 132.723 23.4244L134.218 22.0956ZM134.23 21.92V2.48H132.23V21.92H134.23ZM134.23 2.48C134.23 2.41952 134.233 2.37269 134.238 2.33778C134.242 2.30274 134.247 2.28342 134.249 2.27659C134.253 2.2629 134.241 2.31384 134.177 2.37711L132.763 0.962893C132.322 1.40355 132.23 2.00459 132.23 2.48H134.23ZM134.177 2.37711C134.139 2.41574 134.109 2.42349 134.121 2.41953C134.138 2.41404 134.195 2.4 134.31 2.4V0.399999C133.794 0.399999 133.206 0.520292 132.763 0.962893L134.177 2.37711ZM134.31 2.4H138.96V0.399999H134.31V2.4ZM138.96 2.4C139.016 2.4 139.058 2.40336 139.087 2.40742C139.117 2.4115 139.13 2.41579 139.131 2.41618C139.132 2.41646 139.119 2.41217 139.098 2.39876C139.076 2.38491 139.049 2.36384 139.023 2.33436L140.518 1.00564C140.081 0.514965 139.463 0.399999 138.96 0.399999V2.4ZM139.106 2.41741C139.076 2.39121 139.055 2.36445 139.041 2.34239C139.028 2.32104 139.024 2.3079 139.024 2.30873C139.024 2.30992 139.029 2.32338 139.033 2.35278C139.037 2.38214 139.04 2.42388 139.04 2.48H141.04C141.04 1.97712 140.925 1.35874 140.435 0.92259L139.106 2.41741ZM139.04 2.48V17.33H141.04V2.48H139.04ZM140.04 18.33H144.15V16.33H140.04V18.33ZM145.15 17.33V12.47H143.15V17.33H145.15ZM145.15 12.47C145.15 12.4095 145.153 12.3627 145.158 12.3278C145.162 12.2927 145.167 12.2734 145.169 12.2666C145.173 12.2529 145.161 12.3038 145.097 12.3671L143.683 10.9529C143.242 11.3935 143.15 11.9946 143.15 12.47H145.15ZM145.097 12.3671C145.059 12.4057 145.029 12.4135 145.041 12.4095C145.058 12.404 145.115 12.39 145.23 12.39V10.39C144.714 10.39 144.126 10.5103 143.683 10.9529L145.097 12.3671ZM145.23 12.39H149.58V10.39H145.23V12.39ZM149.58 12.39C149.636 12.39 149.678 12.3934 149.707 12.3974C149.737 12.4015 149.75 12.4058 149.751 12.4062C149.752 12.4065 149.739 12.4022 149.718 12.3888C149.696 12.3749 149.669 12.3538 149.643 12.3244L151.138 10.9956C150.701 10.505 150.083 10.39 149.58 10.39V12.39ZM149.726 12.4074C149.696 12.3812 149.675 12.3545 149.661 12.3324C149.648 12.311 149.644 12.2979 149.644 12.2987C149.644 12.2999 149.649 12.3134 149.653 12.3428C149.657 12.3721 149.66 12.4139 149.66 12.47H151.66C151.66 11.9671 151.545 11.3487 151.055 10.9126L149.726 12.4074ZM149.66 12.47V21.92H151.66V12.47H149.66ZM149.66 21.92C149.66 22.0348 149.646 22.0919 149.641 22.109C149.637 22.1213 149.644 22.0915 149.683 22.0529L151.097 23.4671C151.54 23.0245 151.66 22.4358 151.66 21.92H149.66ZM149.683 22.0529C149.746 21.9896 149.797 21.9771 149.784 21.9812C149.777 21.9832 149.757 21.9882 149.722 21.9925C149.687 21.9968 149.641 22 149.58 22V24C150.056 24 150.657 23.9078 151.097 23.4671L149.683 22.0529ZM155.35 22.76L154.602 23.4244L154.641 23.4683L154.685 23.5074L155.35 22.76ZM155.35 17.54L156.057 18.2471L156.057 18.2471L155.35 17.54ZM159.16 17.27V18.27H160.16V17.27H159.16ZM159.16 7.19H160.16V6.19H159.16V7.19ZM155.35 6.95L154.602 7.61436L154.641 7.65833L154.685 7.69741L155.35 6.95ZM155.35 1.67L154.642 0.962893L154.642 0.962893L155.35 1.67ZM169.78 1.67L169.032 2.33436L169.071 2.37833L169.115 2.41741L169.78 1.67ZM169.78 6.95L170.487 7.65711L170.487 7.6571L169.78 6.95ZM166.06 7.19V6.19H165.06V7.19H166.06ZM166.06 17.27H165.06V18.27H166.06V17.27ZM169.78 17.54L169.032 18.2044L169.071 18.2483L169.115 18.2874L169.78 17.54ZM169.78 22.76L170.487 23.4671L170.487 23.4671L169.78 22.76ZM156.19 22C156.066 22 155.998 21.9866 155.969 21.9785C155.944 21.9712 155.971 21.9742 156.014 22.0126L154.685 23.5074C155.129 23.9016 155.699 24 156.19 24V22ZM156.097 22.0956C156.135 22.1388 156.138 22.1657 156.131 22.1403C156.123 22.112 156.11 22.0437 156.11 21.92H154.11C154.11 22.4102 154.208 22.9809 154.602 23.4244L156.097 22.0956ZM156.11 21.92V18.35H154.11V21.92H156.11ZM156.11 18.35C156.11 18.2895 156.113 18.2427 156.117 18.2078C156.121 18.1727 156.126 18.1534 156.128 18.1466C156.132 18.1329 156.12 18.1838 156.057 18.2471L154.642 16.8329C154.202 17.2735 154.11 17.8746 154.11 18.35H156.11ZM156.057 18.2471C156.018 18.2857 155.988 18.2935 156.001 18.2895C156.018 18.284 156.075 18.27 156.19 18.27V16.27C155.674 16.27 155.085 16.3903 154.642 16.8329L156.057 18.2471ZM156.19 18.27H159.16V16.27H156.19V18.27ZM160.16 17.27V7.19H158.16V17.27H160.16ZM159.16 6.19H156.19V8.19H159.16V6.19ZM156.19 6.19C156.066 6.19 155.998 6.17655 155.969 6.16848C155.944 6.16121 155.971 6.1642 156.014 6.20259L154.685 7.69741C155.129 8.09159 155.699 8.19 156.19 8.19V6.19ZM156.097 6.28564C156.135 6.32882 156.138 6.3557 156.131 6.33028C156.123 6.30201 156.11 6.23367 156.11 6.11H154.11C154.11 6.60023 154.208 7.17091 154.602 7.61436L156.097 6.28564ZM156.11 6.11V2.48H154.11V6.11H156.11ZM156.11 2.48C156.11 2.41952 156.113 2.37269 156.117 2.33778C156.121 2.30274 156.126 2.28342 156.128 2.27659C156.132 2.2629 156.12 2.31384 156.057 2.37711L154.642 0.962893C154.202 1.40355 154.11 2.00459 154.11 2.48H156.11ZM156.057 2.37711C156.018 2.41574 155.988 2.42349 156.001 2.41953C156.018 2.41404 156.075 2.4 156.19 2.4V0.399999C155.674 0.399999 155.085 0.520292 154.642 0.962893L156.057 2.37711ZM156.19 2.4H168.97V0.399999H156.19V2.4ZM168.97 2.4C169.026 2.4 169.067 2.40336 169.097 2.40742C169.126 2.4115 169.14 2.41579 169.141 2.41618C169.142 2.41646 169.128 2.41217 169.107 2.39876C169.085 2.38491 169.058 2.36384 169.032 2.33436L170.527 1.00563C170.091 0.514965 169.472 0.399999 168.97 0.399999V2.4ZM169.115 2.41741C169.086 2.3912 169.065 2.36445 169.051 2.34239C169.037 2.32104 169.033 2.3079 169.033 2.30873C169.034 2.30992 169.038 2.32337 169.042 2.35278C169.046 2.38214 169.05 2.42388 169.05 2.48H171.05C171.05 1.97712 170.935 1.35874 170.444 0.922593L169.115 2.41741ZM169.05 2.48V6.11H171.05V2.48H169.05ZM169.05 6.11C169.05 6.22479 169.035 6.28191 169.03 6.29899C169.026 6.31131 169.034 6.28153 169.072 6.24289L170.487 7.6571C170.929 7.2145 171.05 6.62581 171.05 6.11H169.05ZM169.072 6.24289C169.136 6.17963 169.187 6.16715 169.173 6.1712C169.166 6.17323 169.147 6.17818 169.112 6.18249C169.077 6.18679 169.03 6.19 168.97 6.19V8.19C169.445 8.19 170.046 8.09776 170.487 7.65711L169.072 6.24289ZM168.97 6.19H166.06V8.19H168.97V6.19ZM165.06 7.19V17.27H167.06V7.19H165.06ZM166.06 18.27H168.97V16.27H166.06V18.27ZM168.97 18.27C169.026 18.27 169.067 18.2734 169.097 18.2774C169.126 18.2815 169.14 18.2858 169.141 18.2862C169.142 18.2865 169.128 18.2822 169.107 18.2688C169.085 18.2549 169.058 18.2338 169.032 18.2044L170.527 16.8756C170.091 16.385 169.472 16.27 168.97 16.27V18.27ZM169.115 18.2874C169.086 18.2612 169.065 18.2345 169.051 18.2124C169.037 18.191 169.033 18.1779 169.033 18.1787C169.034 18.1799 169.038 18.1934 169.042 18.2228C169.046 18.2521 169.05 18.2939 169.05 18.35H171.05C171.05 17.8471 170.935 17.2287 170.444 16.7926L169.115 18.2874ZM169.05 18.35V21.92H171.05V18.35H169.05ZM169.05 21.92C169.05 22.0348 169.035 22.0919 169.03 22.109C169.026 22.1213 169.034 22.0915 169.072 22.0529L170.487 23.4671C170.929 23.0245 171.05 22.4358 171.05 21.92H169.05ZM169.072 22.0529C169.136 21.9896 169.187 21.9771 169.173 21.9812C169.166 21.9832 169.147 21.9882 169.112 21.9925C169.077 21.9968 169.03 22 168.97 22V24C169.445 24 170.046 23.9078 170.487 23.4671L169.072 22.0529ZM168.97 22H156.19V24H168.97V22ZM193.134 19.85L192.195 19.5043L192.193 19.5114L192.19 19.5185L193.134 19.85ZM191.694 21.77L192.301 22.5644L192.304 22.5618L191.694 21.77ZM188.844 23L188.605 22.0289L188.601 22.0299L188.844 23ZM179.634 23L179.395 23.9711L179.395 23.9711L179.634 23ZM176.754 21.77L176.132 22.5531L176.144 22.5631L176.157 22.5727L176.754 21.77ZM175.314 19.85L174.367 20.1737L174.373 20.1889L174.378 20.2039L175.314 19.85ZM175.314 4.61L174.375 4.26429L174.373 4.27138L174.37 4.27851L175.314 4.61ZM176.754 2.66L176.143 1.86814L176.132 1.87689L176.754 2.66ZM179.634 1.4L179.395 0.428927L179.395 0.428927L179.634 1.4ZM188.844 1.4L188.601 2.37015L188.605 2.37107L188.844 1.4ZM191.694 2.66L191.072 3.44319L191.083 3.45178L191.694 2.66ZM193.134 4.61L192.187 4.93369L192.193 4.94888L192.198 4.96389L193.134 4.61ZM182.184 17.27L181.501 18.0011L181.515 18.0136L181.529 18.0257L182.184 17.27ZM186.324 17.27L186.979 18.0257L186.992 18.0136L187.006 18.0011L186.324 17.27ZM186.324 7.22L185.641 7.95105L185.655 7.96362L185.669 7.97569L186.324 7.22ZM182.184 7.22L182.839 7.97569L182.852 7.96362L182.866 7.95105L182.184 7.22ZM192.554 17.33C192.554 18.1479 192.429 18.869 192.195 19.5043L194.072 20.1957C194.398 19.311 194.554 18.3521 194.554 17.33H192.554ZM192.19 19.5185C192.002 20.0536 191.65 20.5408 191.083 20.9782L192.304 22.5618C193.137 21.9192 193.745 21.1264 194.077 20.1815L192.19 19.5185ZM191.086 20.9756C190.554 21.3824 189.748 21.7477 188.605 22.0289L189.082 23.9711C190.379 23.6523 191.473 23.1976 192.301 22.5644L191.086 20.9756ZM188.601 22.0299C187.509 22.3028 186.068 22.45 184.254 22.45V24.45C186.159 24.45 187.778 24.2972 189.086 23.9701L188.601 22.0299ZM184.254 22.45C182.44 22.45 180.987 22.3029 179.872 22.0289L179.395 23.9711C180.721 24.2971 182.348 24.45 184.254 24.45V22.45ZM179.872 22.0289C178.729 21.7478 177.907 21.3811 177.35 20.9673L176.157 22.5727C177 23.1989 178.098 23.6522 179.395 23.9711L179.872 22.0289ZM177.375 20.9869C176.823 20.5478 176.459 20.0512 176.249 19.4961L174.378 20.2039C174.728 21.1288 175.325 21.9122 176.132 22.5531L177.375 20.9869ZM176.26 19.5263C176.04 18.8844 175.924 18.1556 175.924 17.33H173.924C173.924 18.3444 174.067 19.2956 174.367 20.1737L176.26 19.5263ZM175.924 17.33V7.1H173.924V17.33H175.924ZM175.924 7.1C175.924 6.2738 176.04 5.55834 176.257 4.94148L174.37 4.27851C174.067 5.14166 173.924 6.0862 173.924 7.1H175.924ZM176.252 4.9557C176.464 4.38022 176.828 3.87763 177.375 3.44311L176.132 1.87689C175.319 2.52237 174.723 3.31978 174.375 4.26429L176.252 4.9557ZM177.364 3.45178C177.918 3.02465 178.735 2.65081 179.872 2.37107L179.395 0.428927C178.092 0.749183 176.989 1.21535 176.143 1.86822L177.364 3.45178ZM179.872 2.37107C180.987 2.09708 182.44 1.95 184.254 1.95V-0.0500004C182.348 -0.0500004 180.721 0.102917 179.395 0.428927L179.872 2.37107ZM184.254 1.95C186.068 1.95 187.509 2.09723 188.601 2.37014L189.086 0.429857C187.778 0.102771 186.159 -0.0500004 184.254 -0.0500004V1.95ZM188.605 2.37107C189.743 2.65088 190.543 3.02333 191.072 3.44311L192.315 1.87689C191.484 1.21667 190.384 0.749116 189.082 0.428927L188.605 2.37107ZM191.083 3.45178C191.644 3.88455 191.997 4.37774 192.187 4.93369L194.08 4.28631C193.75 3.32226 193.143 2.51545 192.304 1.86822L191.083 3.45178ZM192.198 4.96389C192.429 5.57402 192.554 6.28155 192.554 7.1H194.554C194.554 6.07845 194.398 5.12598 194.069 4.25611L192.198 4.96389ZM192.554 7.1V17.33H194.554V7.1H192.554ZM180.734 16.25C180.734 16.9352 181.005 17.5375 181.501 18.0011L182.866 16.5389C182.763 16.4425 182.734 16.3648 182.734 16.25H180.734ZM181.529 18.0257C181.88 18.3299 182.338 18.4692 182.741 18.5452C183.17 18.6261 183.681 18.66 184.254 18.66V16.66C183.746 16.66 183.372 16.6289 183.111 16.5798C182.825 16.5258 182.788 16.4701 182.839 16.5143L181.529 18.0257ZM184.254 18.66C184.826 18.66 185.337 18.6261 185.766 18.5452C186.17 18.4692 186.628 18.3299 186.979 18.0257L185.669 16.5143C185.72 16.4701 185.683 16.5258 185.396 16.5798C185.135 16.6289 184.761 16.66 184.254 16.66V18.66ZM187.006 18.0011C187.503 17.5375 187.774 16.9352 187.774 16.25H185.774C185.774 16.3648 185.745 16.4425 185.641 16.5389L187.006 18.0011ZM187.774 16.25V8.18H185.774V16.25H187.774ZM187.774 8.18C187.774 7.49551 187.487 6.90456 186.979 6.46431L185.669 7.97569C185.761 8.05544 185.774 8.10449 185.774 8.18H187.774ZM187.006 6.48894C186.656 6.16192 186.192 6.00856 185.78 5.92497C185.345 5.83665 184.829 5.8 184.254 5.8V7.8C184.758 7.8 185.128 7.83335 185.382 7.88503C185.66 7.94144 185.692 7.99808 185.641 7.95105L187.006 6.48894ZM184.254 5.8C183.678 5.8 183.163 5.83665 182.727 5.92497C182.315 6.00856 181.852 6.16192 181.501 6.48894L182.866 7.95105C182.816 7.99808 182.847 7.94144 183.125 7.88503C183.38 7.83335 183.749 7.8 184.254 7.8V5.8ZM181.529 6.46431C181.021 6.90456 180.734 7.49551 180.734 8.18H182.734C182.734 8.10449 182.747 8.05544 182.839 7.97569L181.529 6.46431ZM180.734 8.18V16.25H182.734V8.18H180.734ZM198.693 22.76L197.945 23.4244L197.984 23.4683L198.028 23.5074L198.693 22.76ZM198.693 15.02L199.4 15.7271L199.4 15.7271L198.693 15.02ZM206.403 15.02L205.655 15.6844L205.694 15.7283L205.738 15.7674L206.403 15.02ZM206.403 22.76L207.11 23.4671L207.11 23.4671L206.403 22.76ZM205.593 22H199.533V24H205.593V22ZM199.533 22C199.409 22 199.341 21.9866 199.312 21.9785C199.287 21.9712 199.314 21.9742 199.357 22.0126L198.028 23.5074C198.472 23.9016 199.043 24 199.533 24V22ZM199.44 22.0956C199.479 22.1388 199.482 22.1657 199.474 22.1403C199.466 22.112 199.453 22.0437 199.453 21.92H197.453C197.453 22.4102 197.551 22.9809 197.945 23.4244L199.44 22.0956ZM199.453 21.92V15.83H197.453V21.92H199.453ZM199.453 15.83C199.453 15.7695 199.456 15.7227 199.46 15.6878C199.465 15.6527 199.47 15.6334 199.472 15.6266C199.476 15.6129 199.463 15.6638 199.4 15.7271L197.986 14.3129C197.545 14.7535 197.453 15.3546 197.453 15.83H199.453ZM199.4 15.7271C199.361 15.7657 199.331 15.7735 199.344 15.7695C199.361 15.764 199.418 15.75 199.533 15.75V13.75C199.017 13.75 198.428 13.8703 197.986 14.3129L199.4 15.7271ZM199.533 15.75H205.593V13.75H199.533V15.75ZM205.593 15.75C205.649 15.75 205.691 15.7534 205.72 15.7574C205.749 15.7615 205.763 15.7658 205.764 15.7662C205.765 15.7665 205.752 15.7622 205.73 15.7488C205.708 15.7349 205.682 15.7138 205.655 15.6844L207.15 14.3556C206.714 13.865 206.096 13.75 205.593 13.75V15.75ZM205.738 15.7674C205.709 15.7412 205.688 15.7145 205.674 15.6924C205.661 15.671 205.656 15.6579 205.657 15.6587C205.657 15.6599 205.661 15.6734 205.665 15.7028C205.669 15.7321 205.673 15.7739 205.673 15.83H207.673C207.673 15.3271 207.558 14.7087 207.067 14.2726L205.738 15.7674ZM205.673 15.83V21.92H207.673V15.83H205.673ZM205.673 21.92C205.673 22.0348 205.659 22.0919 205.653 22.109C205.649 22.1213 205.657 22.0915 205.696 22.0529L207.11 23.4671C207.552 23.0245 207.673 22.4358 207.673 21.92H205.673ZM205.696 22.0529C205.759 21.9896 205.81 21.9771 205.796 21.9812C205.789 21.9832 205.77 21.9882 205.735 21.9925C205.7 21.9968 205.653 22 205.593 22V24C206.068 24 206.669 23.9078 207.11 23.4671L205.696 22.0529Z" fill="#3757B7" mask="url(#path-1-outside-1_66_3)"/>
</svg>
