<svg width="40" height="40" viewBox="0 0 40 40" fill="none" xmlns="http://www.w3.org/2000/svg">
<g clip-path="url(#clip0_87_707)">
<path fill-rule="evenodd" clip-rule="evenodd" d="M40 5C40 2.24039 37.7596 0 35 0H5C2.24039 0 0 2.24039 0 5V35C0 37.7596 2.24039 40 5 40H35C37.7596 40 40 37.7596 40 35V5Z" fill="#2867B2"/>
<path d="M11.4698 13.9585H4.76978V34.1118H11.4698V13.9585Z" fill="white"/>
<path d="M8.165 4.24072C5.87273 4.24072 4.375 5.74775 4.375 7.72299C4.375 9.65674 5.82719 11.2053 8.07633 11.2053H8.11961C10.4558 11.2053 11.9099 9.65674 11.9099 7.72299C11.8666 5.74775 10.4559 4.24072 8.165 4.24072Z" fill="white"/>
<path d="M27.9123 13.4846C24.3584 13.4846 22.7666 15.4391 21.8752 16.8119V13.9585H15.1769C15.2657 15.8489 15.1769 34.1117 15.1769 34.1117H21.8751V22.8567C21.8751 22.2543 21.9184 21.652 22.0959 21.2215C22.5794 20.0184 23.6823 18.7721 25.5329 18.7721C27.9557 18.7721 28.9263 20.6209 28.9263 23.3289V34.1117H35.6248V22.5547C35.6248 16.3643 32.3198 13.4846 27.9123 13.4846Z" fill="white"/>
</g>
<defs>
<clipPath id="clip0_87_707">
<rect width="40" height="40" fill="white"/>
</clipPath>
</defs>
</svg>
