<svg width="370" height="250" viewBox="0 0 370 250" fill="none" xmlns="http://www.w3.org/2000/svg">
<g filter="url(#filter0_d_283_71)">
<rect x="10" y="10" width="350" height="230" rx="8" fill="#898989"/>
<rect x="9.5" y="9.5" width="351" height="231" rx="8.5" stroke="#E6E6E6"/>
</g>
<path d="M161.667 145C159.833 145 158.264 144.347 156.958 143.042C155.653 141.736 155 140.167 155 138.333V91.6667C155 89.8333 155.653 88.2639 156.958 86.9583C158.264 85.6528 159.833 85 161.667 85H208.333C210.167 85 211.736 85.6528 213.042 86.9583C214.347 88.2639 215 89.8333 215 91.6667V138.333C215 140.167 214.347 141.736 213.042 143.042C211.736 144.347 210.167 145 208.333 145H161.667ZM161.667 138.333H208.333V91.6667H161.667V138.333ZM165 131.667H205L192.5 115L182.5 128.333L175 118.333L165 131.667Z" fill="black" fill-opacity="0.5"/>
<path d="M170.32 161.76L176.528 152.8H177.088V164H175.728V161.184V161.008V155.824L172.56 160.56H176.288H176.56H178.848V161.76H170.32ZM181.328 158.4C181.328 159.051 181.392 159.653 181.52 160.208C181.648 160.752 181.835 161.227 182.08 161.632C182.325 162.027 182.619 162.336 182.96 162.56C183.312 162.773 183.701 162.88 184.128 162.88C184.565 162.88 184.955 162.773 185.296 162.56C185.637 162.336 185.931 162.027 186.176 161.632C186.421 161.227 186.608 160.752 186.736 160.208C186.864 159.653 186.928 159.051 186.928 158.4C186.928 157.749 186.864 157.152 186.736 156.608C186.608 156.053 186.421 155.579 186.176 155.184C185.931 154.779 185.637 154.469 185.296 154.256C184.955 154.032 184.565 153.92 184.128 153.92C183.701 153.92 183.312 154.032 182.96 154.256C182.619 154.469 182.325 154.779 182.08 155.184C181.835 155.579 181.648 156.053 181.52 156.608C181.392 157.152 181.328 157.749 181.328 158.4ZM179.968 158.4C179.968 157.28 180.144 156.288 180.496 155.424C180.848 154.56 181.333 153.883 181.952 153.392C182.581 152.891 183.307 152.64 184.128 152.64C184.949 152.64 185.669 152.891 186.288 153.392C186.917 153.883 187.408 154.56 187.76 155.424C188.112 156.288 188.288 157.28 188.288 158.4C188.288 159.52 188.112 160.512 187.76 161.376C187.408 162.24 186.917 162.923 186.288 163.424C185.669 163.915 184.949 164.16 184.128 164.16C183.307 164.16 182.581 163.915 181.952 163.424C181.333 162.923 180.848 162.24 180.496 161.376C180.144 160.512 179.968 159.52 179.968 158.4ZM189.242 161.76L195.45 152.8H196.01V164H194.65V161.184V161.008V155.824L191.482 160.56H195.21H195.482H197.77V161.76H189.242Z" fill="black" fill-opacity="0.5"/>
<defs>
<filter id="filter0_d_283_71" x="0" y="0" width="370" height="250" filterUnits="userSpaceOnUse" color-interpolation-filters="sRGB">
<feFlood flood-opacity="0" result="BackgroundImageFix"/>
<feColorMatrix in="SourceAlpha" type="matrix" values="0 0 0 0 0 0 0 0 0 0 0 0 0 0 0 0 0 0 127 0" result="hardAlpha"/>
<feMorphology radius="1" operator="dilate" in="SourceAlpha" result="effect1_dropShadow_283_71"/>
<feOffset/>
<feGaussianBlur stdDeviation="4"/>
<feComposite in2="hardAlpha" operator="out"/>
<feColorMatrix type="matrix" values="0 0 0 0 0.901961 0 0 0 0 0.901961 0 0 0 0 0.901961 0 0 0 1 0"/>
<feBlend mode="normal" in2="BackgroundImageFix" result="effect1_dropShadow_283_71"/>
<feBlend mode="normal" in="SourceGraphic" in2="effect1_dropShadow_283_71" result="shape"/>
</filter>
</defs>
</svg>
