<svg width="67" height="81" viewBox="0 0 67 81" fill="none" xmlns="http://www.w3.org/2000/svg">
<path d="M66.4667 0.871391L60.493 72.6709L33.6405 80.6578L6.862 72.6821L0.894531 0.871391H66.4667Z" fill="#264DE4"/>
<path d="M55.3787 68.0989L60.4838 6.74297H33.6807V74.5529L55.3787 68.0989Z" fill="#2965F1"/>
<path d="M14.575 33.3766L15.3107 42.1838H33.6808V33.3766H14.575Z" fill="#EBEBEB"/>
<path d="M33.6808 15.5504H33.6525H13.0967L13.8429 24.3577H33.6808V15.5504Z" fill="#EBEBEB"/>
<path d="M33.6808 65.4133V56.25L33.6448 56.2603L24.5024 53.6118L23.918 46.5875H19.4755H15.6775L16.8276 60.4162L33.643 65.4246L33.6808 65.4133Z" fill="#EBEBEB"/>
<path d="M43.7608 42.1837L42.8079 53.6061L33.6523 56.2574V65.4203L50.4811 60.4162L50.6046 58.9283L52.5336 35.7415L52.7339 33.3765L54.2159 15.5504H33.6523V24.3577H45.2196L44.4726 33.3765H33.6523V42.1837H43.7608Z" fill="white"/>
</svg>
