<svg width="79" height="78" viewBox="0 0 79 78" fill="none" xmlns="http://www.w3.org/2000/svg">
<g clip-path="url(#clip0_72_100)">
<path d="M58.2238 56.5174C58.7182 52.402 58.5696 51.8015 61.6326 52.4657L62.412 52.5355C64.7684 52.6416 67.8496 52.1564 69.6905 51.3163C73.5875 49.5088 75.8984 46.4883 72.056 47.2828C63.2915 49.0903 62.6546 46.1213 62.6546 46.1213C71.9135 32.3832 75.7862 14.9451 72.4411 10.6781C63.3309 -0.967432 47.5578 4.53995 47.294 4.68552L47.2091 4.70068C45.4804 4.33676 43.5698 4.12447 41.356 4.09414C37.3892 4.03349 34.3808 5.13436 32.0941 6.86603C32.0941 6.86603 3.95974 -4.72495 5.26683 21.4442C5.54584 27.0123 13.2428 63.5987 22.4319 52.5294C25.7952 48.4838 29.0402 45.0659 29.0402 45.0659C30.6475 46.1365 32.5793 46.6824 34.6021 46.4852L34.7598 46.3518C34.7132 46.876 34.7346 47.404 34.8235 47.9227C32.458 50.5672 33.1555 51.0312 28.4245 52.0047C23.6389 52.9904 26.4533 54.7463 28.285 55.2073C30.511 55.7653 35.6606 56.5538 39.1421 51.6833L39.0026 52.2383C39.9306 52.9813 39.8669 57.5758 40.0034 60.8572C40.1399 64.1386 40.3552 67.2046 41.0254 69.0091C41.6956 70.8135 42.4811 75.4687 48.6981 74.1647C53.8932 73.0517 57.866 71.4474 58.2299 56.5447" fill="black"/>
<path d="M58.2238 56.5174C58.7182 52.402 58.5696 51.8015 61.6326 52.4657L62.412 52.5355C64.7684 52.6416 67.8496 52.1564 69.6905 51.3163C73.5875 49.5088 75.8984 46.4883 72.056 47.2828C63.2915 49.0903 62.6546 46.1213 62.6546 46.1213C71.9135 32.3832 75.7862 14.9451 72.4411 10.6781C63.3309 -0.967432 47.5578 4.53995 47.294 4.68552L47.2091 4.70068C45.4804 4.33676 43.5698 4.12447 41.356 4.09415C37.3892 4.03349 34.3808 5.13436 32.0941 6.86603C32.0941 6.86603 3.95974 -4.72495 5.26683 21.4442C5.54584 27.0123 13.2428 63.5987 22.4319 52.5294C25.7952 48.4838 29.0402 45.0659 29.0402 45.0659C30.6475 46.1365 32.5793 46.6824 34.6021 46.4852L34.7598 46.3518C34.7132 46.876 34.7346 47.404 34.8235 47.9227C32.458 50.5672 33.1555 51.0312 28.4245 52.0047C23.6389 52.9904 26.4533 54.7463 28.285 55.2073C30.511 55.7653 35.6606 56.5538 39.1421 51.6833L39.0026 52.2383C39.9306 52.9813 39.8669 57.5758 40.0034 60.8572C40.1399 64.1386 40.3552 67.2046 41.0254 69.0091C41.6956 70.8135 42.4811 75.4687 48.6981 74.1647C53.8931 73.0517 57.866 71.4474 58.2299 56.5447" stroke="black" stroke-width="5.3725"/>
<path d="M72.0286 47.3101C63.2641 49.1176 62.6273 46.1486 62.6273 46.1486C71.8861 32.4105 75.7589 14.9724 72.4168 10.7054C63.3066 -0.940142 47.5335 4.57027 47.2697 4.71281L47.1848 4.72797C45.2582 4.34141 43.2995 4.13732 41.3347 4.1184C37.3679 4.05775 34.3595 5.15862 32.0728 6.89029C32.0728 6.89029 3.93542 -4.70069 5.24554 21.4685C5.52455 27.0365 13.2215 63.623 22.4106 52.5537C25.7951 48.4838 29.0401 45.0659 29.0401 45.0659C30.6474 46.1365 32.5793 46.6823 34.6021 46.4852L34.7598 46.3518C34.7134 46.876 34.7349 47.404 34.8235 47.9227C32.458 50.5672 33.1555 51.0312 28.4245 52.0047C23.6389 52.9904 26.4532 54.7463 28.285 55.2073C30.511 55.7653 35.6605 56.5538 39.142 51.6833L39.0025 52.2383C39.9305 52.9813 40.5795 57.0693 40.4704 60.7753C40.3612 64.4813 40.2884 67.0227 41.0162 69.0121C41.7441 71.0016 42.4719 75.4718 48.689 74.1677C53.884 73.0547 56.574 70.1645 56.9531 65.3547C57.22 61.9338 57.8204 62.4372 57.8629 59.3803L58.3481 57.9306C58.9031 53.2906 58.4391 51.7955 61.6386 52.493L62.418 52.5628C64.7744 52.6689 67.8587 52.1837 69.6662 51.3436C73.5632 49.5361 75.8711 46.5155 72.0286 47.3101Z" fill="#336791"/>
<path d="M39.5151 49.9395C39.2725 58.5705 39.5757 67.2622 40.4188 69.3487C41.2619 71.4352 43.0724 75.5658 49.2925 74.2375C54.4875 73.1245 56.3799 70.9682 57.1988 66.2099L59.1185 50.9948M32.0607 6.67194C32.0607 6.67194 3.90512 -4.84019 5.21524 21.329C5.49425 26.897 13.1912 63.4835 22.3803 52.4142C25.7345 48.3716 28.7672 45.2085 28.7672 45.2085M47.2667 4.57028C46.2962 4.87355 62.9275 -1.51029 72.3835 10.569C75.7195 14.836 71.8528 32.274 62.5939 46.0121" stroke="white" stroke-width="1.79" stroke-linecap="round" stroke-linejoin="round"/>
<path d="M62.5969 46.0061C62.5969 46.0061 63.2035 48.9781 71.9983 47.1645C75.8408 46.37 73.5268 49.3905 69.6328 51.198C66.4364 52.6841 59.267 53.0631 59.1488 51.0161C58.8455 45.724 62.9214 47.3313 62.6273 46.0061C62.3604 44.8112 60.5347 43.6405 59.3338 40.717C58.2814 38.1696 44.8981 18.6086 63.0458 21.5109C63.713 21.3745 58.3148 4.22455 41.3317 3.97586C24.3485 3.72718 24.8853 24.856 24.8853 24.856" stroke="white" stroke-width="1.79" stroke-linecap="round" stroke-linejoin="bevel"/>
<path d="M34.7629 47.8196C32.3974 50.4641 33.0949 50.9281 28.3639 51.9016C23.5783 52.8873 26.3926 54.6432 28.2244 55.1042C30.4504 55.6622 35.5999 56.4507 39.0815 51.5771C40.1429 50.0911 39.0754 47.7256 37.6197 47.1251C36.9161 46.834 35.976 46.4701 34.769 47.8226L34.7629 47.8196Z" stroke="white" stroke-width="1.79" stroke-linejoin="round"/>
<path d="M34.6082 47.7741C34.3656 46.2184 35.1177 44.3714 35.9214 42.2061C37.1284 38.9611 39.9124 35.7161 37.6864 25.414C36.0275 17.7413 24.8884 23.8158 24.8884 24.856C24.8884 25.8962 25.3918 30.1329 24.7065 35.061C23.8057 41.4964 28.8006 46.9371 34.5506 46.3821" stroke="white" stroke-width="1.79" stroke-linecap="round" stroke-linejoin="round"/>
<path d="M31.9576 24.7013C31.9061 25.0562 32.6097 26.0054 33.5225 26.1328C34.4353 26.2602 35.2147 25.5202 35.2663 25.1623C35.3179 24.8045 34.6143 24.4163 33.7014 24.2889C32.7886 24.1615 32.0031 24.3496 31.9576 24.7013Z" fill="white" stroke="white" stroke-width="0.5975"/>
<path d="M59.7493 23.9765C59.7978 24.3314 59.0972 25.2806 58.1844 25.408C57.2715 25.5353 56.4861 24.7954 56.4406 24.4375C56.3951 24.0796 57.0926 23.6915 58.0055 23.5641C58.9183 23.4367 59.7038 23.6247 59.7493 23.9765Z" fill="white" stroke="white" stroke-width="0.2975"/>
<path d="M63.0124 21.517C63.164 24.3071 62.4119 26.2025 62.3149 29.1715C62.1754 33.484 64.3711 38.4213 61.0624 43.3646" stroke="white" stroke-width="1.79" stroke-linecap="round" stroke-linejoin="round"/>
</g>
<defs>
<clipPath id="clip0_72_100">
<rect width="77.6371" height="77.6371" fill="white" transform="translate(0.654053)"/>
</clipPath>
</defs>
</svg>
