<svg width="42" height="42" viewBox="0 0 42 42" fill="none" xmlns="http://www.w3.org/2000/svg">
<circle cx="21" cy="21" r="20.5" fill="#161619" stroke="#E6E6E6"/>
<path d="M32.375 16.775L29.6667 18.2646L26.9584 20.8375V29.6667H30.75C31.6476 29.6667 32.375 28.9392 32.375 28.0417V16.775Z" fill="#4CAF50"/>
<path d="M9.625 16.775L11.5826 17.7013L15.0417 20.8375V29.6667H11.25C10.3525 29.6667 9.625 28.9392 9.625 28.0417V16.775Z" fill="#1E88E5"/>
<path d="M26.9583 14.0667L21 18.5354L15.0417 14.0667L14.5 17.2083L15.0417 20.8375L21 25.3062L26.9583 20.8375L27.5 17.2083L26.9583 14.0667Z" fill="#E53935"/>
<path d="M9.625 14.6614V16.775L15.0417 20.8375V14.0666L13.3495 12.7986C12.9465 12.4964 12.4568 12.3333 11.9531 12.3333C10.6672 12.3333 9.625 13.3755 9.625 14.6614Z" fill="#C62828"/>
<path d="M32.375 14.6614V16.775L26.9584 20.8375V14.0666L28.6505 12.7986C29.0535 12.4964 29.5432 12.3333 30.047 12.3333C31.3329 12.3333 32.375 13.3755 32.375 14.6614Z" fill="#FBC02D"/>
</svg>
