<svg width="75" height="79" viewBox="0 0 75 79" fill="none" xmlns="http://www.w3.org/2000/svg">
<path d="M73.2874 36.4209L40.8153 2.34346C38.9469 0.380703 35.9141 0.380703 34.0434 2.34346L27.3009 9.42082L35.8535 18.3974C37.8418 17.6928 40.1208 18.1652 41.7049 19.8282C43.2973 21.5015 43.7442 23.9139 43.056 26.0077L51.2992 34.6595C53.2935 33.9382 55.5945 34.4042 57.1869 36.0785C59.4133 38.4145 59.4133 42.1998 57.1869 44.5364C54.9603 46.8738 51.3537 46.8738 49.1258 44.5364C47.4518 42.778 47.0377 40.1965 47.8856 38.0317L40.1979 29.9629L40.1973 51.1957C40.74 51.4777 41.2523 51.8541 41.7046 52.3268C43.9303 54.6625 43.9303 58.4471 41.7046 60.7867C39.4782 63.1224 35.8701 63.1224 33.6461 60.7867C31.4201 58.4473 31.4201 54.6627 33.6461 52.3268C34.1962 51.7504 34.8328 51.3142 35.512 51.0218V29.5917C34.8325 29.3005 34.1967 28.8675 33.6457 28.2865C31.9596 26.5182 31.5535 23.9209 32.4182 21.7477L23.987 12.8972L1.72355 36.2635C-0.147106 38.2278 -0.147106 41.4109 1.72355 43.3737L34.1938 77.4513C36.0632 79.414 39.0949 79.414 40.967 77.4513L73.2871 43.5347C75.1571 41.571 75.1571 38.387 73.2871 36.4238" fill="#F05133"/>
</svg>
