<svg width="77" height="80" viewBox="0 0 77 80" fill="none" xmlns="http://www.w3.org/2000/svg">
<path d="M76.7384 0.00415039H0.789062V79.7906H76.7384V0.00415039Z" fill="#F7DF1E"/>
<path d="M51.758 62.3375C53.2877 64.9606 55.2779 66.8887 58.7979 66.8887C61.7549 66.8887 63.6438 65.3366 63.6438 63.192C63.6438 60.6221 61.703 59.7119 58.4483 58.2168L56.6642 57.4129C51.5145 55.1088 48.0934 52.2224 48.0934 46.1205C48.0934 40.4996 52.1714 36.2206 58.5447 36.2206C63.0821 36.2206 66.3441 37.879 68.6947 42.2213L63.1375 45.9685C61.914 43.6645 60.594 42.7568 58.5447 42.7568C56.4544 42.7568 55.1296 44.1493 55.1296 45.9685C55.1296 48.2169 56.4557 49.1271 59.5175 50.5197L61.3016 51.3223C67.3651 54.053 70.7886 56.8369 70.7886 63.0958C70.7886 69.8434 65.7413 73.5401 58.963 73.5401C52.3354 73.5401 48.0536 70.2232 45.9585 65.8759L51.758 62.3375ZM26.5481 62.987C27.6692 65.0758 28.689 66.8418 31.1409 66.8418C33.4856 66.8418 34.9647 65.8784 34.9647 62.1324V36.6485H42.101V62.2337C42.101 69.9941 37.7686 73.5261 31.4447 73.5261C25.7308 73.5261 22.4218 70.4207 20.739 66.6804L26.5481 62.987Z" fill="black"/>
</svg>
