<svg width="78" height="72" viewBox="0 0 78 72" fill="none" xmlns="http://www.w3.org/2000/svg">
<path d="M39.899 71.4544C39.4444 71.4544 38.9929 71.3264 38.5943 71.0802L34.4412 68.4422C33.8208 68.07 34.1235 67.9384 34.3281 67.8625C35.1552 67.5518 35.323 67.4817 36.2058 66.9438C36.2986 66.887 36.4201 66.907 36.5151 66.9672L39.7057 68.9985C39.8209 69.0653 39.9844 69.0653 40.0912 68.9985L52.5315 61.2942C52.6467 61.2241 52.7215 61.0804 52.7215 60.9334V45.5316C52.7215 45.3779 52.6467 45.2409 52.529 45.1641L40.0937 37.4665C39.9784 37.393 39.8259 37.393 39.7106 37.4665L27.2777 45.1641C27.1572 45.2376 27.0806 45.3813 27.0806 45.5283V60.9301C27.0806 61.0771 27.1554 61.2174 27.2737 61.2875L30.6804 63.399C32.5301 64.3913 33.6605 63.2219 33.6605 62.0459V46.8446C33.6605 46.6274 33.8193 46.4604 34.0217 46.4604H35.5974C35.7936 46.4604 35.9555 46.6274 35.9555 46.8446V62.0526C35.9555 64.6987 34.6102 66.2188 32.2716 66.2188C31.5523 66.2188 30.9856 66.2188 29.4037 65.3835L26.1402 63.3656C25.3337 62.8645 24.8354 61.929 24.8354 60.9301V45.5283C24.8354 44.526 25.3337 43.5905 26.1402 43.096L38.593 35.3885C39.3809 34.9107 40.4272 34.9107 41.2088 35.3885L53.646 43.0994C54.4494 43.5972 54.9508 44.5293 54.9508 45.5316V60.9334C54.9508 61.9323 54.4494 62.8645 53.646 63.3656L41.2088 71.0732C40.8102 71.3204 40.3587 71.4474 39.8978 71.4474" fill="#689F63"/>
<path d="M43.7413 60.8415C38.298 60.8415 37.1567 58.1608 37.1567 55.9123C37.1567 55.6985 37.3174 55.5281 37.517 55.5281H39.1238C39.3013 55.5281 39.4508 55.6667 39.4788 55.8548C39.7217 57.6115 40.4442 58.4975 43.7356 58.4975C46.3576 58.4975 47.4724 57.8621 47.4724 56.3703C47.4724 55.5117 47.1548 54.8736 43.0817 54.446C39.675 54.0851 37.57 53.28 37.57 50.3566C37.57 47.6638 39.6875 46.0602 43.2343 46.0602C47.2171 46.0602 49.1913 47.5435 49.4405 50.7308C49.4498 50.8411 49.4124 50.948 49.3439 51.0282C49.2754 51.105 49.1789 51.1518 49.0792 51.1518H47.4631C47.2949 51.1518 47.1486 51.0248 47.1143 50.8511C46.7251 49.0035 45.7847 48.4122 43.2281 48.4122C40.3663 48.4122 40.0331 49.4813 40.0331 50.2831C40.0331 51.2553 40.4255 51.5393 44.2868 52.0872C48.1108 52.6318 49.9262 53.4002 49.9262 56.2835C49.9262 59.1901 47.6655 60.8572 43.7232 60.8572M58.8758 44.5233H59.2931C59.6356 44.5233 59.701 44.2661 59.701 44.1157C59.701 43.7215 59.4488 43.7215 59.3087 43.7215H58.8789L58.8758 44.5233ZM58.3683 43.2604H59.2931C59.6107 43.2604 60.2335 43.2604 60.2335 44.0222C60.2335 44.5534 59.9159 44.6636 59.7259 44.7305C60.0965 44.7572 60.1214 45.0178 60.1712 45.3853C60.1962 45.6158 60.2366 46.0134 60.3114 46.147H59.7415C59.7259 46.0134 59.6388 45.2784 59.6388 45.2383C59.6014 45.0746 59.5485 44.9944 59.3585 44.9944H58.8883V46.1504H58.3683V43.2604ZM57.2566 44.6971C57.2566 45.8931 58.1565 46.862 59.262 46.862C60.3768 46.862 61.2767 45.8731 61.2767 44.6971C61.2767 43.4976 60.3643 42.5455 59.2589 42.5455C58.169 42.5455 57.2534 43.4843 57.2534 44.6937M61.6628 44.7037C61.6628 46.1203 60.5823 47.2763 59.2651 47.2763C57.9572 47.2763 56.8673 46.1337 56.8673 44.7037C56.8673 43.2471 57.9821 42.1312 59.2651 42.1312C60.5574 42.1312 61.6597 43.2504 61.6597 44.7037" fill="#689F63"/>
<path fill-rule="evenodd" clip-rule="evenodd" d="M17.0243 17.3904C17.0243 17.044 16.8541 16.7257 16.5754 16.5534L9.14179 11.9647C9.0163 11.8856 8.87573 11.8442 8.73322 11.8385H8.65635C8.51384 11.8442 8.37326 11.8856 8.24567 11.9647L0.812431 16.5534C0.535488 16.7267 0.362793 17.0449 0.362793 17.3914L0.379115 29.751C0.379115 29.9224 0.461601 30.0824 0.602003 30.1672C0.738895 30.2575 0.910888 30.2575 1.04778 30.1672L5.46694 27.4519C5.74599 27.2738 5.91622 26.959 5.91622 26.6159V20.8419C5.91622 20.4973 6.08646 20.1791 6.36463 20.0077L8.24602 18.8452C8.38572 18.7586 8.53911 18.7156 8.69531 18.7156C8.84905 18.7156 9.00595 18.7582 9.14179 18.845L11.0223 20.0071C11.3006 20.1785 11.4716 20.4967 11.4716 20.8413V26.615C11.4716 26.9577 11.6441 27.274 11.9218 27.451L16.3381 30.1643C16.4767 30.2528 16.6493 30.2528 16.7874 30.1643C16.9236 30.0796 17.0099 29.9195 17.0099 29.7482L17.0243 17.3904ZM52.1017 23.8256C52.1017 23.9116 52.059 23.9913 51.9894 24.0338L49.4362 25.6129C49.3668 25.6556 49.2812 25.6556 49.212 25.6129L46.6585 24.0338C46.5883 23.9911 46.5461 23.9114 46.5461 23.8256V20.663C46.5461 20.5767 46.5883 20.4973 46.6567 20.454L49.2085 18.8723C49.2787 18.829 49.3647 18.829 49.4349 18.8723L51.9885 20.454C52.0587 20.4973 52.1008 20.5767 52.1008 20.663L52.1017 23.8256ZM52.7914 0.401337C52.6521 0.318111 52.4825 0.32037 52.3449 0.406421C52.208 0.493036 52.1235 0.651204 52.1235 0.822552V13.0617C52.1235 13.1822 52.0638 13.2933 51.9665 13.3536C51.87 13.4138 51.7498 13.4138 51.6524 13.3536L49.7903 12.2029C49.513 12.0308 49.1715 12.0308 48.8931 12.2029L41.4571 16.8073C41.1793 16.9786 41.0078 17.2968 41.0078 17.6395V26.8509C41.0078 27.1955 41.1793 27.5118 41.4571 27.6851L48.8931 32.2926C49.1708 32.464 49.5127 32.464 49.7912 32.2926L57.2272 27.6832C57.5045 27.5099 57.6765 27.1936 57.6765 26.849V3.89213C57.6765 3.54266 57.4993 3.22124 57.215 3.05046L52.7914 0.401337ZM77.5536 20.5798C77.8299 20.4077 77.9999 20.0898 77.9999 19.7471V17.5147C77.9999 17.1712 77.8297 16.8543 77.5529 16.6815L70.1642 12.0796C69.8852 11.9063 69.543 11.9063 69.2639 12.0796L61.8296 16.6834C61.5506 16.8566 61.3803 17.1729 61.3803 17.5175V26.7251C61.3803 27.0716 61.5541 27.3917 61.8331 27.563L69.22 32.0802C69.4921 32.2478 69.8255 32.2497 70.1011 32.0859L74.5694 29.4215C74.7098 29.3368 74.7993 29.1767 74.7993 29.0035C74.7993 28.8303 74.7133 28.6683 74.5729 28.5836L67.0929 23.9779C66.9525 23.8932 66.8666 23.7331 66.8666 23.5618V20.6733C66.8666 20.5009 66.9508 20.3419 67.0912 20.2561L69.4184 18.8156C69.557 18.729 69.7272 18.729 69.8659 18.8156L72.1948 20.2561C72.3335 20.3408 72.4195 20.5009 72.4195 20.6722V22.943C72.4195 23.1144 72.5055 23.2744 72.6441 23.3611C72.7827 23.4458 72.9547 23.4458 73.0934 23.3592L77.5536 20.5798Z" fill="#333333"/>
<path fill-rule="evenodd" clip-rule="evenodd" d="M69.6055 24.4921C69.6582 24.4588 69.7241 24.4588 69.7775 24.4921L71.2043 25.3752C71.2577 25.4083 71.2903 25.4694 71.2903 25.5353V27.3033C71.2903 27.3692 71.2577 27.4303 71.2043 27.4634L69.7775 28.3465C69.7241 28.3798 69.6582 28.3798 69.6055 28.3465L68.1795 27.4634C68.1251 27.4303 68.0918 27.3692 68.0918 27.3033V25.5353C68.0918 25.4694 68.1234 25.4083 68.1778 25.3752L69.6055 24.4921Z" fill="#689F63"/>
<mask id="mask0_82_20" style="mask-type:luminance" maskUnits="userSpaceOnUse" x="20" y="11" width="18" height="22">
<path d="M28.5702 12.1256L21.1763 16.7043C20.8994 16.8757 20.7295 17.192 20.7295 17.534V26.6979C20.7295 27.04 20.8994 27.3562 21.1763 27.5275L28.5708 32.1099C28.8472 32.2806 29.188 32.2806 29.4641 32.1099L36.8573 27.5275C37.1328 27.3562 37.3031 27.0398 37.3031 26.6979V17.534C37.3031 17.192 37.1329 16.8757 36.8556 16.7043L29.4634 12.1256C29.3247 12.0403 29.1703 11.9975 29.0158 11.9975C28.8614 11.9975 28.707 12.0403 28.5683 12.1256" fill="white"/>
</mask>
<g mask="url(#mask0_82_20)">
<path d="M44.7752 15.9269L23.9404 4.97001L13.2576 28.3513L34.0918 39.3088L44.7752 15.9269Z" fill="url(#paint0_linear_82_20)"/>
</g>
<mask id="mask1_82_20" style="mask-type:luminance" maskUnits="userSpaceOnUse" x="20" y="12" width="18" height="21">
<path d="M20.9128 27.2797C20.9836 27.3781 21.072 27.4634 21.1761 27.5275L27.5188 31.4581L28.5753 32.1096C28.7332 32.2075 28.9133 32.249 29.0902 32.2348C29.1492 32.2298 29.2082 32.2179 29.2657 32.2004L37.064 16.8807C37.0043 16.811 36.9345 16.7527 36.8562 16.7037L32.0148 13.7042L29.4556 12.1244C29.383 12.0792 29.3042 12.0472 29.2239 12.0246L20.9128 27.2797Z" fill="white"/>
</mask>
<g mask="url(#mask1_82_20)">
<path d="M11.9049 19.1676L26.6164 40.5302L46.0726 25.1077L31.3603 3.74566L11.9049 19.1676Z" fill="url(#paint1_linear_82_20)"/>
</g>
<mask id="mask2_82_20" style="mask-type:luminance" maskUnits="userSpaceOnUse" x="21" y="11" width="17" height="22">
<path d="M28.9274 12.0028C28.8033 12.016 28.6821 12.0574 28.5703 12.1256L21.1974 16.6911L29.1477 32.2273C29.2582 32.2104 29.367 32.1709 29.4653 32.1098L36.8592 27.5275C37.0874 27.3855 37.2436 27.1453 37.291 26.873L29.1863 12.0184C29.1266 12.0058 29.0669 11.9992 29.0055 11.9992C28.9809 11.9992 28.9564 12.0005 28.9318 12.003" fill="white"/>
</mask>
<g mask="url(#mask2_82_20)">
<path d="M21.1974 11.9992V32.2277H37.288V11.9992H21.1974Z" fill="url(#paint2_linear_82_20)"/>
</g>
<defs>
<linearGradient id="paint0_linear_82_20" x1="34.3516" y1="10.4312" x2="22.4052" y2="33.1461" gradientUnits="userSpaceOnUse">
<stop offset="0.3" stop-color="#3E863D"/>
<stop offset="0.5" stop-color="#55934F"/>
<stop offset="0.8" stop-color="#5AAD45"/>
</linearGradient>
<linearGradient id="paint1_linear_82_20" x1="19.3488" y1="29.9713" x2="39.7515" y2="15.9203" gradientUnits="userSpaceOnUse">
<stop offset="0.57" stop-color="#3E863D"/>
<stop offset="0.72" stop-color="#619857"/>
<stop offset="1" stop-color="#76AC64"/>
</linearGradient>
<linearGradient id="paint2_linear_82_20" x1="21.2028" y1="22.114" x2="37.291" y2="22.114" gradientUnits="userSpaceOnUse">
<stop offset="0.16" stop-color="#6BBF47"/>
<stop offset="0.38" stop-color="#79B461"/>
<stop offset="0.47" stop-color="#75AC64"/>
<stop offset="0.7" stop-color="#659E5A"/>
<stop offset="0.9" stop-color="#3E863D"/>
</linearGradient>
</defs>
</svg>
