<svg width="75" height="80" viewBox="0 0 75 80" fill="none" xmlns="http://www.w3.org/2000/svg">
<path d="M37.1701 0.004803C34.1371 0.0199227 31.2408 0.297442 28.6923 0.781271C21.1846 2.20429 19.8215 5.18281 19.8215 10.6757V17.9301H37.563V20.3483H19.8215H13.1633C8.00719 20.3483 3.49232 23.6733 2.08013 29.9986C0.451182 37.249 0.378929 41.7733 2.08013 49.3438C3.34125 54.979 6.35299 58.9942 11.5091 58.9942H17.609V50.2977C17.609 44.0151 22.6756 38.4732 28.6923 38.4732H46.413C51.3458 38.4732 55.2837 34.1157 55.2837 28.8007V10.6757C55.2837 5.51722 51.2276 1.6422 46.413 0.781271C43.3653 0.236962 40.203 -0.010317 37.1701 0.004803ZM27.5757 5.8394C29.4082 5.8394 30.9048 7.47124 30.9048 9.47771C30.9048 11.4771 29.4082 13.0938 27.5757 13.0938C25.7365 13.0938 24.2466 11.4771 24.2466 9.47771C24.2466 7.47124 25.7365 5.8394 27.5757 5.8394Z" fill="url(#paint0_linear_72_28)"/>
<path d="M57.4962 20.3482V28.8007C57.4962 35.3537 52.3179 40.8692 46.413 40.8692H28.6922C23.8382 40.8692 19.8215 45.3264 19.8215 50.5417V68.6667C19.8215 73.8252 24.0024 76.8594 28.6922 78.3393C34.3082 80.111 39.6936 80.4311 46.413 78.3393C50.8794 76.9519 55.2837 74.1596 55.2837 68.6667V61.4123H37.5629V58.9942H55.2837H64.1544C69.3105 58.9942 71.2319 55.1355 73.0251 49.3438C74.8774 43.3813 74.7986 37.6474 73.0251 29.9986C71.7508 24.4915 69.3171 20.3482 64.1544 20.3482H57.4962ZM47.5296 66.2486C49.3687 66.2486 50.8587 67.8654 50.8587 69.8647C50.8587 71.8712 49.3687 73.503 47.5296 73.503C45.697 73.503 44.2005 71.8712 44.2005 69.8647C44.2005 67.8654 45.697 66.2486 47.5296 66.2486Z" fill="url(#paint1_linear_72_28)"/>
<defs>
<linearGradient id="paint0_linear_72_28" x1="0.831177" y1="0.00415018" x2="44.1318" y2="34.3956" gradientUnits="userSpaceOnUse">
<stop stop-color="#5A9FD4"/>
<stop offset="1" stop-color="#306998"/>
</linearGradient>
<linearGradient id="paint1_linear_72_28" x1="47.1032" y1="69.2548" x2="31.0284" y2="48.2594" gradientUnits="userSpaceOnUse">
<stop stop-color="#FFD43B"/>
<stop offset="1" stop-color="#FFE873"/>
</linearGradient>
</defs>
</svg>
