<svg width="80" height="80" viewBox="0 0 80 80" fill="none" xmlns="http://www.w3.org/2000/svg">
<path d="M39.785 46.9314C43.6936 46.9314 46.8621 43.7821 46.8621 39.8973C46.8621 36.0124 43.6936 32.8631 39.785 32.8631C35.8764 32.8631 32.7079 36.0124 32.7079 39.8973C32.7079 43.7821 35.8764 46.9314 39.785 46.9314Z" fill="#61DAFB"/>
<path d="M39.7847 54.3088C60.7576 54.3088 77.7594 47.8565 77.7594 39.8973C77.7594 31.9381 60.7576 25.4859 39.7847 25.4859C18.8119 25.4859 1.81006 31.9381 1.81006 39.8973C1.81006 47.8565 18.8119 54.3088 39.7847 54.3088Z" stroke="#61DAFB" stroke-width="3"/>
<path d="M27.2276 47.1031C37.714 65.1559 51.8368 76.5645 58.7718 72.5848C65.7068 68.6052 62.8278 50.7444 52.3413 32.6916C41.8549 14.6388 27.7321 3.23026 20.7971 7.20987C13.8622 11.1895 16.7412 29.0503 27.2276 47.1031Z" stroke="#61DAFB" stroke-width="3"/>
<path d="M27.2275 32.6917C16.7411 50.7445 13.8621 68.6053 20.7971 72.5849C27.732 76.5645 41.8549 65.156 52.3413 47.1032C62.8277 29.0503 65.7067 11.1896 58.7717 7.20994C51.8368 3.23033 37.714 14.6389 27.2275 32.6917Z" stroke="#61DAFB" stroke-width="3"/>
</svg>
